<svg xmlns="http://www.w3.org/2000/svg" width="50" height="50" viewBox="0 0 50 50"><path fill="#FFF" d="M28.497 29.496h-1v1h1v-1zm6-13.999H19.496l-4 4v15s14.962.016 15.001 0c.038-.016 3.983-3.962 4-4 .016-.04 0-15 0-15zm-15.001 2v2h-2l2-2zm10.001 15.999H17.496v-1h-.999v-12h13v13zm0-13.999h-9.001v-3h12.001l-3 3zm1 12.999v-2h2l-2 2zm3-3h-3v-9l3-3v12zm-7 0h-1.001v1h1.001v-1zm-2.001 0h-1v1h1v-1zm-2 0h-1v1h1v-1zm-2 0h-1v1h1v-1zm0-2h-1v1h1v-1zm0-1.999h-1v1h1v-1zm0-2h-1v1h1v-1zm0-2h-1v1h1v-1zm-1 8.999h-1v1h1v-1zm-1 1h-1v1h1v-1z"/></svg>