<svg xmlns="http://www.w3.org/2000/svg" width="24" height="24" viewBox="0 0 24 24"><path fill="#B49D69" d="M13.306.5C9.691.5 6.491 2.347 4.555 5.167c.4.268.792.635 1.169 1.107 1.445-2.212 3.782-3.764 6.484-4.098l1.098 1.903 1.098-1.903c4.155.513 7.458 3.894 7.96 8.148l-1.858 1.124 1.858 1.124a9.38 9.38 0 0 1-4.183 6.762c.143.333.225.677.238 1.03.011.259-.015.504-.068.736C21.71 19.251 24 15.619 24 11.448 24 5.411 19.202.5 13.306.5zm2.73 18.032c-2.467-2.028-3.156-1.031-4.274.112-.781.802-2.757-.871-4.463-2.617-1.707-1.749-3.338-3.771-2.557-4.57 1.119-1.145 2.093-1.851.111-4.375-1.982-2.523-3.303-.585-4.387.524-1.251 1.28-.065 6.053 4.541 10.767 4.606 4.717 9.267 5.931 10.517 4.649 1.083-1.11 2.976-2.461.512-4.49zm-7.51-5.37c0-2.244 2.565-2.644 2.565-3.519 0-.425-.332-.603-.64-.603-.564 0-.879.646-.879.646l-1.079-.74s.548-1.308 2.092-1.308c.971 0 2.026.569 2.026 1.86 0 1.896-2.391 2.261-2.433 3.043h2.523v1.277H8.593a3.801 3.801 0 0 1-.067-.656zm4.784-1.716l2.292-3.707h1.775v3.374h.706v1.233h-.706v1.472h-1.435v-1.472H13.31v-.9zm2.632-.333V9.754c0-.332.049-.68.049-.68h-.017s-.124.374-.291.629l-.896 1.394v.017l1.155-.001z"/></svg>