<svg xmlns="http://www.w3.org/2000/svg" width="64" height="64" viewBox="0 0 64 64"><path fill="#B49D69" d="M32.57 29c.525 0 1.101-.102 1.101.424 0 .524-.575.576-1.101.576h-3c-.524 0-1.6-.052-1.6-.576 0-.525 1.075-.424 1.6-.424h3zM19 52H7V6h12v46zM18 7H8v44h10V7zm36 45v4H0V.01C0 .009 39.079-.01 39.123.006L39.07 52H42v-2h-1v-4h5v-5.991c0-.03-1.592-.206-2.01-.565-.783-.674-.973-1.729-1.118-2.426-.142-.664-.313-1.492-.237-2.338.018-.199.051-.398.1-.593a1.27 1.27 0 0 0-.207-1.051 3.602 3.602 0 0 1-.389-.67c-.697-1.582-.494-3.631.5-5.101.217-.319.289-.697.197-1.009a3.72 3.72 0 0 1-.098-1.736c.191-1.041.848-1.957 1.727-2.424l.499-.429c.586-.61 1.548-.895 2.651-.737 1.314.186 2.432.938 2.988 2.009.351.675.455 1.501.291 2.27-.06.278.019.608.193.82.311.378.533.851.631 1.333.168.838.041 1.771-.388 2.854l-.001.001a7.246 7.246 0 0 1-.854 1.591c-.227.309-.244.811-.043 1.279a4.53 4.53 0 0 1 .162 3.021c-.428 1.41-1.523 2.623-3.055 3.412-.049.028-.539.462-.539.489V46h5v4h-1v2h3zM3 4.009l-2-2V55h2V4.009zM35 4H4v51h31V4zm.07-1l2-2h-35l2 2h31zM38 2.009l-2 2V55h2V2.009zM42 53h-3v2h3v-2zm4.318-14.993c.133-.049.265-.106.389-.172.62-.317 1.716-1.039 2.09-2.274a2.621 2.621 0 0 0-.097-1.717c-.472-1.087-.378-2.294.243-3.147a5.41 5.41 0 0 0 .623-1.173c.289-.733.385-1.316.291-1.784a1.197 1.197 0 0 0-.235-.5 2.882 2.882 0 0 1-.585-2.426c.07-.335.025-.717-.12-.998-.274-.529-.86-.904-1.569-1.004-.07-.01-.18-.022-.303-.022-.256 0-.574.048-.777.258l-.865.705c-.393.186-.703.623-.795 1.115-.051.271-.031.573.051.851.256.864.094 1.816-.446 2.612-.634.936-.771 2.281-.336 3.271.048.105.108.213.177.305a3.17 3.17 0 0 1 .526 2.637 2.274 2.274 0 0 0-.052.306c-.053.565.078 1.182.203 1.776.095.446.236 1.123.533 1.379.184.156.484.147.801.07a.946.946 0 0 1 .253-.068zM42 49h9v-2h-9v2zm8 1h-7v5h7v-5zm3.07 3.008h-2v2h2v-2zM33 52H22V32h11v20zm-1-19h-9v18h9V33zm1-7H22V6h11v20zM32 7h-9v18h9V7z"/></svg>