<svg xmlns="http://www.w3.org/2000/svg" width="22" height="18" viewBox="0 0 22 18"><path fill="#FFF" d="M10.889 3.696l-.036 10.698h7.845s1.89.182 2.327-.202c.437-.383.656-.585.656-1.604V5.186s.039-1.005-.678-1.294c-.713-.288-10.114-.196-10.114-.196z"/><path fill="#E21F26" d="M9.814 14.498H1.557C.7 14.498 0 13.821 0 12.994V5.005C0 4.178.698 3.501 1.553 3.5h18.74c.47.001.895.188 1.203.487.309.297.5.706.504 1.157v7.71a1.622 1.622 0 0 1-.504 1.158 1.732 1.732 0 0 1-1.211.487h-7.941c-1.749 0 .187-.002-.76-.002l-.213.003-1.557-.002zM11.372 3.92v10.16h.213c1.444-.002-.475-.002.759-.002h7.943c.351 0 .67-.138.902-.364.232-.225.377-.533.377-.873V5.158c0-.34-.145-.649-.377-.874a1.297 1.297 0 0 0-.902-.364h-8.915z"/><path fill="#FFF" d="M3.304 10.466a.109.109 0 0 1-.077-.035L1.565 8.363v2.009a.096.096 0 0 1-.097.094h-.413a.096.096 0 0 1-.097-.094v-2.93c0-.052.044-.095.097-.095h.347a.1.1 0 0 1 .077.036l1.548 1.899v-1.84c0-.052.043-.095.097-.095h.413c.054 0 .097.043.097.095v2.93a.095.095 0 0 1-.097.094h-.233zM4.751 9.9h.662c.303 0 .556-.092.731-.267.187-.184.284-.452.276-.757-.013-.471-.285-.972-1.007-.972h-.662V9.9zm-.505.566a.096.096 0 0 1-.097-.094v-2.93c0-.052.043-.095.097-.095h1.167c1.167 0 1.597.826 1.609 1.533.008.451-.153.873-.442 1.158-.285.278-.688.428-1.167.428H4.246zm4.312.013a.098.098 0 0 1-.089-.059L7.211 7.478a.094.094 0 0 1 .009-.089.1.1 0 0 1 .08-.042h.47c.04 0 .075.024.09.06l.947 2.367.95-2.367a.099.099 0 0 1 .091-.06h.469a.1.1 0 0 1 .081.042.092.092 0 0 1 .009.088L9.149 10.42a.1.1 0 0 1-.089.059h-.502z"/><path fill="#06060B" d="M14.229 8.924h.923c.407 0 .552-.269.552-.5 0-.249-.171-.501-.552-.501h-.923v1.001zm1.566 1.57a.101.101 0 0 1-.073-.03l-.909-1.009h-.583v.947c0 .051-.046.094-.098.094h-.413a.097.097 0 0 1-.098-.094V7.471c0-.025.009-.049.028-.066a.099.099 0 0 1 .068-.028l.413.001h.511c.17 0 .34 0 .511-.002.8.005 1.158.523 1.158 1.034 0 .247-.08.837-.814.981l.869.947a.092.092 0 0 1 .016.1.1.1 0 0 1-.089.057h-.497v-.001zm2.498.067c-.69 0-1.43-.364-1.43-1.392v-1.69c0-.052.044-.093.098-.093h.409c.054 0 .096.042.096.093v1.689c0 .538.312.858.833.858.5 0 .787-.312.787-.858V7.479c0-.052.042-.093.096-.093h.409c.054 0 .098.042.098.093v1.689c-.001.859-.536 1.393-1.396 1.393z"/><path fill="#FFF" d="M.959 11.703h.155v-.259h.251v.259h.156v-.623h-.156v.238h-.251v-.238H.959v.623zm.753 0h.449v-.128h-.299v-.131h.268v-.118h-.268v-.117h.283v-.129h-.433v.623zm.554.135h.136v-.135h.43v.135h.136v-.263h-.071v-.495h-.488v.159c0 .168-.03.268-.087.336h-.056v.263zm.224-.263c.036-.053.07-.151.07-.315v-.051h.181v.366H2.49zm.62.128h.257c.123 0 .246-.045.246-.181 0-.081-.058-.133-.132-.146.063-.021.105-.066.105-.137 0-.124-.119-.16-.219-.16H3.11v.624zm.15-.12v-.144h.086c.066 0 .11.017.11.069 0 .061-.061.074-.109.074H3.26v.001zm0-.254v-.13h.076c.065 0 .099.019.099.063 0 .043-.034.067-.091.067H3.26zm.513.374h.167l.246-.4h.002v.4h.154v-.623h-.165l-.247.412h-.003v-.412h-.154v.623zm.676 0h.194l.222-.29v.29h.156v-.29h.001l.22.29h.195l-.264-.338.249-.285h-.186l-.214.261H5.02v-.261h-.155v.261l-.215-.261h-.186l.247.285-.262.338zm1.096 0h.166l.246-.4h.003v.4h.154v-.623H5.95l-.248.412h-.004v-.412h-.153v.623zm.759 0h.146l-.004-.439h.004l.163.439h.108l.167-.439h.003l-.004.439h.152v-.623h-.223l-.141.4h-.003l-.146-.4h-.221l-.001.623zm1.247.018c.202 0 .351-.134.351-.331 0-.2-.149-.324-.351-.324-.201 0-.35.124-.35.324 0 .197.149.331.35.331zm0-.136c-.108 0-.184-.082-.184-.195 0-.109.075-.19.184-.19s.185.081.185.19c0 .113-.077.195-.185.195zm.828.136a.33.33 0 0 0 .251-.103l-.109-.1a.164.164 0 0 1-.136.064c-.108 0-.184-.078-.184-.191 0-.109.078-.19.187-.19.048 0 .101.019.13.057l.105-.101c-.054-.061-.151-.092-.242-.092-.196 0-.349.126-.349.326 0 .196.149.33.347.33zm.513-.018h.156v-.492h.181v-.131H8.71v.131h.182v.492zm.465 0h.239c.134 0 .25-.059.25-.196 0-.146-.116-.196-.251-.196h-.081v-.23h-.157v.622zm.157-.118v-.159h.07c.065 0 .108.024.108.079 0 .057-.046.08-.108.08h-.07zm1.858-1.138h-.482a.17.17 0 0 1-.172-.168v-.883a.17.17 0 0 1 .172-.167h.482v1.218z"/><path fill="#E21F26" d="M11.372 10.447h.481a.171.171 0 0 0 .174-.168v-.883a.17.17 0 0 0-.174-.167h-.481v1.218z"/></svg>