<svg xmlns="http://www.w3.org/2000/svg" width="22" height="18" viewBox="0 0 22 18"><path fill="#B49D69" d="M16.543 0c.238.063-11.086 0-11.086 0-1.031 0-1.956 1.048-1.956 2L3.5 14.192c0 .518.194.896.612 1.201-.017-.005-.02.003.041.035v1.285A1.31 1.31 0 0 0 5.457 18h.652c.731 0 1.305-.61 1.305-1.286v-.643h7.174v.643A1.31 1.31 0 0 0 15.891 18h.652a1.31 1.31 0 0 0 1.305-1.286v-1.285c.451-.312.652-.665.652-1.236V2c-.008-.954-.963-2.01-1.957-2zM6.762 16.714c0 .295-.333.644-.652.644h-.653c-.318 0-.652-.349-.652-.644v-.643c.188.052.465 0 .652 0h1.305v.643zm10.433 0c0 .295-.332.644-.652.644h-.652c-.318 0-.65-.349-.65-.644v-.643h1.303c.131 0 .541.018.652 0v.643zm0-2.571c0 .571-.033.643-.652.643H5.457c-.6 0-.652-.071-.652-.643v-3.214h12.391v3.214zm0-4.5H4.805l-.652-5.786h13.694l-.652 5.786zM4.153 3.214l.651-1.285c0-.571.034-.644.652-.644h11.086c.619 0 .652.072.652.644l.652 1.285H4.153zm3.912-.643h5.87v-.642h-5.87v.642zM7.438 12.98l-1.126-1.038-1.124 1.038 1.125 1.039 1.125-1.039zm9.375 0l-1.125-1.038-1.125 1.038 1.125 1.039 1.125-1.039z"/></svg>