<svg xmlns="http://www.w3.org/2000/svg" width="64" height="64" viewBox="0 0 64 64"><path fill="#B49D69" d="M34 2H0v2h34c.684 0 2 1.321 2 2v51c0 .68-1.316 2-2 2H0v2h34c2.048 0 4-1.967 4-4V6c0-2.033-1.952-4-4-4zM17 19c2.047 0 4-1.967 4-4s-1.953-4-4-4c-2.048 0-4 1.967-4 4s1.952 4 4 4zm-9 6v13c0 .68.316 1 1 1s2-.32 2-1V27c0-.679 0-1 1-1 .684 0 1 .321 1 1v26c0 .68.316 1 1 1s2-.32 2-1V40c0-.68.316-2 1-2s1 1.32 1 2v13c0 .68 1.316 1 2 1s1-.32 1-1V27c0-.679.316-1 1-1 1 0 1 .321 1 1v11c0 .68 1.316 1 2 1s1-.32 1-1V25c0-2.033-3.953-3-6-3h-6c-2.047 0-6 .967-6 3zm35 5h2v-4h3l-4-5-4 5h3v4zm2 3h-2v4h-3l4 5 4-5h-3v-4z"/></svg>