<?xml version="1.0" encoding="utf-8"?>
<!-- Generator: Adobe Illustrator 21.0.2, SVG Export Plug-In . SVG Version: 6.00 Build 0)  -->
<svg version="1.1" id="Layer_1" xmlns="http://www.w3.org/2000/svg" xmlns:xlink="http://www.w3.org/1999/xlink" x="0px" y="0px"
	 viewBox="0 0 217.9 182" style="enable-background:new 0 0 217.9 182;" xml:space="preserve">
<style type="text/css">
	.st0{fill:#AC1F23;}
</style>
<g>
	<path class="st0" d="M180.4,3.9v104.4c0,0.2,0,0.3,0,0.5c0,0.1,0,0.3,0,0.4c0,7.3-5.9,13.2-13.2,13.2c-7.3,0-13.2-5.9-13.2-13.2
		c0-0.1,0-0.3,0-0.4c0-0.2,0-0.3,0-0.5V3.8h-31.6l-0.1,104.5c0,12.8,4.2,23.4,12.6,31.8c8.4,8.4,18.9,12.6,31.5,12.6
		c13.7,0,24.8-4.2,33.2-12.6c8.4-8.4,12.6-19,12.6-31.8V3.7L180.4,3.9z"/>
	<path class="st0" d="M96.1,91.7V3.8H64.5L7.7,98.5c-0.2,0.4-0.4,0.8-0.5,1.2c-1.2,2.2-1.9,4.7-1.9,7.3c0,8.5,6.9,15.3,15.3,15.3
		c0.1,0,0.2,0,0.3,0c0.1,0,0.3,0,0.4,0h43.1v30.4h31.7v-30.4h13.1V91.7H96.1z M64.4,91.7H47.3l17.1-32.5V91.7z"/>
	<g>
		<path class="st0" d="M9.8,170.3l-4.2-4.6h1.3l6,6.7v-6.7h1v6.7l6-6.7h1.3l-4.2,4.6l4.5,6h-1.2l-3.9-5.2l-2.5,2.7v2.6h-1v-2.6
			l-2.5-2.7l-3.9,5.3H5.3L9.8,170.3z"/>
		<path class="st0" d="M23.9,165.7h1v9.2l7.1-9.2h1v10.5h-1v-9.2l-7.1,9.2h-1V165.7z"/>
		<path class="st0" d="M39.6,166.6h-3.9v-0.9h8.9v0.9h-3.9v9.6h-1V166.6z"/>
		<path class="st0" d="M44.8,176.2l0.2-0.9c0.1,0,0.6,0.1,0.8,0.1c1.4,0,2.4-0.6,2.4-9.2v-0.6h7.2v10.5h-1v-9.6h-5.2v0.3
			c0,8.7-1.3,9.5-3.2,9.5C45.6,176.4,45.1,176.3,44.8,176.2z"/>
		<path class="st0" d="M58.5,171c0-2.9,2.3-5.5,5.4-5.5c3.1,0,5.4,2.5,5.4,5.5c0,2.9-2.3,5.5-5.4,5.5C60.7,176.5,58.5,174,58.5,171z
			 M68.2,171c0-2.5-2-4.6-4.3-4.6c-2.4,0-4.3,2-4.3,4.6c0,2.5,1.9,4.6,4.3,4.6C66.2,175.5,68.2,173.5,68.2,171z"/>
		<path class="st0" d="M72.4,165.7h4.8c2,0,3.4,1,3.4,2.6c0,1.4-0.9,2.1-1.8,2.4c1.3,0.3,2.4,1.1,2.4,2.6c0,1.8-1.5,2.9-3.8,2.9h-5
			V165.7z M77.1,170.4c1.5,0,2.5-0.7,2.5-2c0-1.1-0.9-1.8-2.5-1.8h-3.7v3.8H77.1z M77.3,175.3c1.8,0,2.8-0.8,2.8-2.1
			c0-1.2-1.1-2-3.1-2h-3.6v4.1H77.3z"/>
		<path class="st0" d="M84.4,165.7h1v9.2l7.1-9.2h1v10.5h-1v-9.2l-7.1,9.2h-1V165.7z"/>
		<path class="st0" d="M97.3,165.7h1v9.2l7.1-9.2h1v10.5h-1v-9.2l-7.1,9.2h-1V165.7z M99.1,161.6l0.8-0.2c0.2,0.9,0.9,1.5,1.9,1.5
			c1.1,0,1.7-0.6,1.9-1.5l0.8,0.2c-0.2,1.3-1.3,2.4-2.8,2.4C100.5,164,99.4,163,99.1,161.6z"/>
		<path class="st0" d="M116.5,165.7h1v6.7l6.5-6.7h1.3l-4.6,4.7l4.7,5.9h-1.3l-4.2-5.1l-2.6,2.6v2.6h-1V165.7z"/>
		<path class="st0" d="M126.8,171c0-2.9,2.3-5.5,5.4-5.5c3.1,0,5.4,2.5,5.4,5.5c0,2.9-2.3,5.5-5.4,5.5
			C129.1,176.5,126.8,174,126.8,171z M136.6,171c0-2.5-2-4.6-4.3-4.6c-2.4,0-4.3,2-4.3,4.6c0,2.5,1.9,4.6,4.3,4.6
			C134.6,175.5,136.6,173.5,136.6,171z"/>
		<path class="st0" d="M140.8,165.7h0.9l4.3,6l4.3-6h0.9v10.5h-1v-8.8l-4.2,5.8l-4.2-5.8v8.8h-1V165.7z"/>
		<path class="st0" d="M155,165.7h8.7v10.5h-1v-9.6H156v9.6h-1V165.7z"/>
		<path class="st0" d="M165.7,176.2l0.2-0.9c0.1,0,0.6,0.1,0.8,0.1c1.4,0,2.4-0.6,2.4-9.2v-0.6h7.2v10.5h-1v-9.6h-5.2v0.3
			c0,8.7-1.3,9.5-3.2,9.5C166.5,176.4,166,176.3,165.7,176.2z"/>
		<path class="st0" d="M179.4,171c0-3.1,2.1-5.5,5-5.5c2.9,0,4.8,2.4,4.8,5.5c0,0.2,0,0.2,0,0.4h-8.7c0.2,2.6,2.1,4.1,4.1,4.1
			c1.6,0,2.7-0.7,3.6-1.7l0.7,0.6c-1.1,1.2-2.3,2-4.4,2C181.8,176.5,179.4,174.3,179.4,171z M188.1,170.5c-0.1-2.1-1.4-4.1-3.8-4.1
			c-2.1,0-3.7,1.8-3.9,4.1H188.1z"/>
		<path class="st0" d="M192.2,165.7h1v6.7l6.5-6.7h1.3l-4.6,4.7l4.7,5.9h-1.3l-4.2-5.1l-2.6,2.6v2.6h-1V165.7z"/>
		<path class="st0" d="M202.5,171c0-3,2.4-5.5,5.4-5.5c2,0,3.3,0.9,4.2,2l-0.7,0.7c-0.9-0.9-1.9-1.7-3.5-1.7c-2.3,0-4.2,2-4.2,4.6
			c0,2.5,1.9,4.6,4.3,4.6c1.5,0,2.6-0.8,3.5-1.8l0.7,0.7c-1.1,1.2-2.4,2.1-4.3,2.1C204.8,176.5,202.5,174,202.5,171z"/>
	</g>
</g>
</svg>
