<svg xmlns="http://www.w3.org/2000/svg" width="54" height="28" viewBox="0 0 54 28"><path fill="#FFF" d="M26.727.499l-.087 27.23h19.255s4.639.467 5.711-.513c1.073-.979 1.613-1.491 1.613-4.085V4.292s.096-2.559-1.663-3.293c-1.753-.731-24.829-.5-24.829-.5z"/><path fill="#E21F26" d="M24.09 27.998H3.821C1.718 27.998 0 26.273 0 24.165V3.833C0 1.727 1.714.004 3.812 0H49.81a4.183 4.183 0 0 1 2.955 1.24A4.211 4.211 0 0 1 54 4.185v19.627a4.222 4.222 0 0 1-4.209 4.185H30.298c-4.292 0 .459-.002-1.864 0h-.524V28l-3.82-.002zm3.821-26.927V26.93h.523c3.546-.002-1.165-.002 1.864-.002h19.495c.861 0 1.646-.354 2.216-.926s.924-1.36.924-2.225V4.221c0-.866-.354-1.652-.924-2.224a3.125 3.125 0 0 0-2.215-.927l-21.883.001z"/><path fill="#FFF" d="M8.11 17.729a.242.242 0 0 1-.188-.091l-4.081-5.26v5.113a.237.237 0 0 1-.238.237H2.589a.237.237 0 0 1-.238-.237v-7.458c0-.132.106-.239.238-.239h.853c.074 0 .142.033.187.09l3.801 4.833v-4.683c0-.132.105-.239.238-.239h1.013a.24.24 0 0 1 .239.239v7.458a.24.24 0 0 1-.239.239H8.11v-.002zm3.552-1.436h1.625c.744 0 1.366-.235 1.795-.679.458-.47.697-1.154.676-1.931-.032-1.196-.699-2.473-2.472-2.473h-1.625v5.083h.001zm-1.241 1.436a.237.237 0 0 1-.238-.237v-7.458c0-.132.107-.239.238-.239h2.865c2.865 0 3.919 2.101 3.949 3.9.02 1.148-.375 2.223-1.086 2.948-.698.712-1.689 1.089-2.863 1.089h-2.865v-.003zm10.586.037a.247.247 0 0 1-.221-.15l-3.086-7.49a.243.243 0 0 1 .021-.225.237.237 0 0 1 .197-.107h1.151c.097 0 .186.062.223.153l2.323 6.023 2.332-6.023a.242.242 0 0 1 .223-.153h1.151a.24.24 0 0 1 .219.332l-3.088 7.492a.238.238 0 0 1-.219.148h-1.226z"/><path fill="#06060B" d="M34.925 13.808h2.269c.999 0 1.353-.686 1.353-1.272 0-.633-.418-1.273-1.353-1.273h-2.269v2.545zm3.843 3.998a.237.237 0 0 1-.18-.083l-2.23-2.565h-1.433v2.409a.24.24 0 0 1-.239.239h-1.014a.239.239 0 0 1-.237-.239v-7.459a.237.237 0 0 1 .236-.238s.677 0 1.014.002l1.253.002c.419 0 .835-.001 1.254-.005 1.965.012 2.843 1.331 2.843 2.632 0 .628-.194 2.129-1.997 2.496l2.131 2.411c.063.068.078.17.039.254a.238.238 0 0 1-.216.143h-1.224v.001zm6.133.17c-1.694 0-3.51-.933-3.51-3.545v-4.299c0-.132.107-.238.239-.238h1.004c.131 0 .235.107.235.238v4.3c0 1.368.765 2.186 2.045 2.186 1.227 0 1.931-.797 1.931-2.186v-4.3c0-.132.105-.238.237-.238h1.002c.133 0 .239.107.239.238v4.3c-.001 2.185-1.311 3.544-3.422 3.544z"/><path fill="#FFF" d="M2.354 20.883h.381v-.664h.617v.664h.383v-1.585h-.383v.6h-.618v-.6h-.38v1.585zm1.848 0h1.104v-.329H4.57v-.328h.657v-.308H4.57v-.296h.695v-.324H4.202v1.585zm1.36.337h.335v-.337h1.054v.337h.335v-.666h-.174v-1.256H5.915v.402c0 .428-.073.682-.214.854h-.139v.666zm.551-.666c.087-.136.171-.383.171-.803v-.129h.446v.932h-.617zm1.522.329h.63c.302 0 .603-.117.603-.462 0-.208-.144-.34-.324-.369v-.007c.155-.051.26-.165.26-.339 0-.321-.292-.408-.539-.408h-.631l.001 1.585zm.367-.31v-.364h.212c.164 0 .271.044.271.176 0 .154-.148.188-.269.188h-.214zm0-.644v-.328h.187c.161 0 .244.047.244.156 0 .112-.083.172-.225.172h-.206zm1.26.954h.408l.603-1.02h.007v1.02h.377v-1.585h-.402l-.606 1.044H9.64v-1.044h-.378v1.585zm1.659 0h.476l.543-.744h.001v.744h.382v-.744h.004l.54.744h.479l-.647-.863.612-.722h-.459l-.526.663h-.004v-.663h-.379v.663h-.001l-.526-.663h-.457l.607.722-.645.863zm2.69 0h.408l.603-1.02h.006v1.02h.379v-1.585h-.402l-.608 1.044h-.01v-1.044h-.377l.001 1.585zm1.863 0h.359l-.008-1.123h.007l.4 1.123h.268l.411-1.123h.008l-.009 1.123h.373v-1.585h-.551l-.344 1.017h-.01l-.359-1.017h-.543l-.002 1.585zm3.06.044c.496 0 .862-.341.862-.843 0-.509-.366-.829-.862-.829-.494 0-.86.32-.86.829 0 .5.367.843.86.843zm0-.35c-.266 0-.451-.208-.451-.493 0-.278.183-.485.451-.485s.453.207.453.485c.001.285-.187.493-.453.493zm2.033.35a.791.791 0 0 0 .615-.263l-.266-.252a.402.402 0 0 1-.336.163c-.263 0-.449-.199-.449-.487 0-.28.191-.485.457-.485.12 0 .247.045.319.146l.258-.259c-.132-.154-.37-.233-.591-.233-.481 0-.857.324-.857.833-.003.494.363.837.85.837zm1.258-.044h.383v-1.259h.446v-.326h-1.275v.326h.447l-.001 1.259zm1.143 0h.586c.33 0 .615-.148.615-.503 0-.366-.284-.5-.617-.5h-.201v-.582h-.383v1.585zm.383-.306v-.402h.172c.16 0 .266.062.266.201 0 .145-.113.201-.266.201h-.172zm4.56-2.894h-1.182a.424.424 0 0 1-.422-.424v-2.251c0-.233.189-.425.422-.425h1.182v3.1z"/><path fill="#E21F26" d="M27.911 17.683h1.183c.233 0 .424-.19.424-.424v-2.251a.425.425 0 0 0-.424-.425h-1.183v3.1z"/></svg>