<svg xmlns="http://www.w3.org/2000/svg" width="70" height="74" viewBox="0 0 70 74"><path fill="#2E3191" d="M19.023 18.389C21.175 11.593 27.522 6.654 35 6.654c3.506 0 6.761 1.087 9.454 2.939a26.017 26.017 0 0 0 3.039-3.783A21.432 21.432 0 0 0 35 1.808c-9.866 0-18.208 6.673-20.776 15.754l2.166.417c.881.17 1.76.306 2.633.41"/><path fill="#2E3191" d="M52.794 0c.051 1.918-.972 4.745-2.979 7.726a29.19 29.19 0 0 1-3.049 3.785c-14.067 12.165-29.657 10.204-33.138 8.873a21.748 21.748 0 0 0 .917 10.011c2.64.207 5.174-.044 5.173-.044 12.246-.813 23.818-6.969 29.534-15.718a23.604 23.604 0 0 0 2.455-4.871C52.82 6.694 53.241 3.41 52.794 0"/><path fill="#8CC33D" d="M20.01 39.033c7.141-.766 19.661-4.523 29.322-17.154a33.113 33.113 0 0 0 2.467-4.818c.287-.702.536-1.39.748-2.059a29.128 29.128 0 0 1-1.797 2.719c-.481.65-.996 1.29-1.545 1.922-6.537 7.501-16.928 12.504-27.839 13.579-1.403.14-2.815.216-4.229.222l-1.293.005a21.846 21.846 0 0 0 4.166 5.584"/><path fill="#8CC33D" d="M54.532 14.244c.08 1.542.007 3.081-.214 4.606a26.46 26.46 0 0 1-1.574 5.863c-3.242 8.263-10.543 15.651-19.665 20.32.633.056 1.273.087 1.92.087 11.906 0 21.592-9.714 21.592-21.655a21.545 21.545 0 0 0-2.059-9.221"/><path fill="#2E3191" d="M40.024 72.321h1.783l-.045-5.566h.034l1.982 5.566h1.329l2.039-5.566h.033l-.045 5.566h1.85v-7.867h-2.736l-1.705 5.045h-.045l-1.784-5.045h-2.69v7.867zM34.496 70.8c-1.319 0-2.237-1.021-2.237-2.445 0-1.378.908-2.398 2.237-2.398 1.329 0 2.249 1.021 2.249 2.398 0 1.423-.931 2.445-2.249 2.445zm0 1.731c2.459 0 4.276-1.687 4.276-4.177 0-2.521-1.817-4.11-4.276-4.11-2.449 0-4.265 1.589-4.265 4.11 0 2.491 1.816 4.177 4.265 4.177zM23.75 70.7c.432-.679.842-1.912.842-4.001v-.633h2.216V70.7H23.75zM21.014 74h1.662v-1.679h5.229V74h1.662v-3.3h-.864v-6.246h-5.938v2.002c0 2.109-.366 3.377-1.063 4.244h-.687V74zm45.451-21.99c1.01 0 1.763-.478 1.94-1.555l-.953-.189c-.065.467-.444.745-.987.745-.553 0-.93-.278-.996-.745l-.941.189c.164 1.077.93 1.555 1.937 1.555zm-3.389 8.49h2.027l2.992-5.058h.032V60.5H70v-7.867h-1.995l-3.012 5.178h-.045v-5.178h-1.872V60.5zm-3.499 0h1.882v-7.867h-1.882V60.5zm-4.976-1.511v-1.99h.854c.797 0 1.318.3 1.318.989 0 .712-.555 1.001-1.318 1.001h-.854zM52.708 60.5h2.902c1.629 0 3.047-.733 3.047-2.5 0-1.812-1.407-2.478-3.058-2.478H54.6v-2.89h-1.893V60.5zm-8.464 0h1.895v-3.29h3.057v3.29h1.896v-7.867h-1.896v2.978h-3.057v-2.978h-1.895V60.5zm-6.846-1.623c.432-.678.843-1.912.843-3.999v-.634h2.215v4.633h-3.058zm-2.736 3.3h1.663V60.5h5.228v1.677h1.661v-3.3h-.863v-6.244h-5.939v1.998c0 2.113-.364 3.381-1.062 4.246h-.687v3.3zm-4.631-3.199c-1.318 0-2.238-1.021-2.238-2.446 0-1.376.909-2.398 2.238-2.398 1.33 0 2.249 1.022 2.249 2.398 0 1.424-.93 2.446-2.249 2.446zm0 1.733c2.459 0 4.277-1.688 4.277-4.18 0-2.521-1.817-4.11-4.277-4.11-2.447 0-4.264 1.589-4.264 4.11 0 2.491 1.817 4.18 4.264 4.18zM17.78 60.5h2.26l1.65-2.778 1.716 2.778h2.338l-2.836-4.156 2.481-3.711h-2.204l-1.441 2.444-1.462-2.444H18l2.526 3.711L17.78 60.5zm-4.299-1.522c-1.317 0-2.238-1.021-2.238-2.446 0-1.376.909-2.398 2.238-2.398 1.33 0 2.25 1.022 2.25 2.398-.001 1.424-.932 2.446-2.25 2.446zm0 1.733c2.459 0 4.276-1.688 4.276-4.18 0-2.521-1.817-4.11-4.276-4.11-2.448 0-4.265 1.589-4.265 4.11 0 2.491 1.817 4.18 4.265 4.18zM2.736 58.877c.432-.678.842-1.912.842-3.999v-.634h2.215v4.633H2.736zM0 62.177h1.662V60.5H6.89v1.677h1.661v-3.3h-.863v-6.244H1.75v1.998c0 2.113-.366 3.381-1.064 4.246H0v3.3z"/></svg>