<svg xmlns="http://www.w3.org/2000/svg" width="70" height="36" viewBox="0 0 70 36"><path fill="#FFF" d="M34.646.642l-.112 35.011h24.96s6.015.599 7.403-.661c1.391-1.257 2.092-1.918 2.092-5.252V5.519s.123-3.289-2.155-4.233C64.561.345 34.646.642 34.646.642z"/><path fill="#E21F26" d="M31.229 35.996H4.954C2.228 35.996 0 33.779 0 31.068V4.929C0 2.221 2.222.006 4.941 0h59.627a5.447 5.447 0 0 1 3.831 1.594A5.391 5.391 0 0 1 70 5.381v25.236a5.396 5.396 0 0 1-1.601 3.787 5.459 5.459 0 0 1-3.854 1.594H39.274c-5.562 0 .596-.004-2.417-.002l-.678.002V36c-1.603-.002-3.249-.004-4.95-.004zm4.953-34.619v33.245h.678c4.599-.002-1.509-.002 2.416-.002h25.273a4.054 4.054 0 0 0 2.873-1.191 4.025 4.025 0 0 0 1.195-2.86V5.427a4.026 4.026 0 0 0-1.195-2.859 4.075 4.075 0 0 0-2.873-1.192H36.182v.001z"/><path fill="#FFF" d="M10.513 22.796a.32.32 0 0 1-.244-.118l-5.29-6.762v6.573a.308.308 0 0 1-.308.307H3.355a.307.307 0 0 1-.308-.307v-9.588c0-.17.138-.308.308-.308h1.106c.096 0 .184.042.242.116l4.928 6.213v-6.021c0-.17.137-.308.308-.308h1.313c.171 0 .309.139.309.308v9.59a.31.31 0 0 1-.309.307h-.74v-.002zm4.605-1.848h2.106c.964 0 1.771-.302 2.327-.873.593-.604.903-1.484.876-2.483-.041-1.538-.906-3.179-3.203-3.179h-2.106v6.535zm-1.608 1.848a.307.307 0 0 1-.309-.307v-9.588c0-.17.138-.308.309-.308h3.714c3.714 0 5.081 2.701 5.119 5.014.026 1.477-.486 2.858-1.407 3.789-.905.915-2.189 1.401-3.712 1.401H13.51v-.001zm13.721.045a.318.318 0 0 1-.286-.192l-4-9.63a.3.3 0 0 1 .027-.289.311.311 0 0 1 .256-.138h1.492c.126 0 .242.08.289.198l3.011 7.745 3.022-7.745a.316.316 0 0 1 .289-.198h1.492c.103 0 .199.052.256.138.058.086.07.193.029.289l-4.002 9.632a.313.313 0 0 1-.285.192l-1.59-.002z"/><path fill="#06060B" d="M45.272 17.753h2.941c1.295 0 1.753-.881 1.753-1.636 0-.815-.542-1.638-1.753-1.638h-2.941v3.274zm4.983 5.14a.315.315 0 0 1-.233-.104l-2.892-3.3h-1.857v3.098a.31.31 0 0 1-.31.307h-1.314a.308.308 0 0 1-.308-.307v-9.591a.3.3 0 0 1 .089-.216.31.31 0 0 1 .218-.09s.879 0 1.314.003l1.623.002c.544 0 1.083-.001 1.627-.007 2.547.015 3.685 1.711 3.685 3.384 0 .808-.251 2.738-2.589 3.209l2.763 3.1c.082.09.102.22.051.328a.31.31 0 0 1-.28.183h-1.586v.001zm7.951.217c-2.197 0-4.551-1.196-4.551-4.558v-5.527c0-.17.14-.307.313-.307h1.299c.17 0 .306.138.306.307v5.528c0 1.761.991 2.81 2.65 2.81 1.591 0 2.503-1.021 2.503-2.81v-5.528c0-.17.137-.307.308-.307h1.3a.31.31 0 0 1 .311.307v5.528c-.004 2.81-1.705 4.557-4.439 4.557z"/><path fill="#FFF" d="M3.052 26.85h.494v-.854h.8v.854h.496v-2.039h-.496v.771h-.802v-.771h-.492v2.039zm2.394 0h1.431v-.422h-.953v-.424h.852v-.395h-.852v-.381h.901v-.418H5.446v2.04zm1.764.433h.436v-.436h1.366v.436h.434v-.855H9.22v-1.617H7.667v.52c0 .548-.094.876-.278 1.098H7.21v.854zm.714-.855c.114-.175.222-.493.222-1.034v-.165h.578v1.199h-.8zm1.973.422h.817c.392 0 .782-.149.782-.595 0-.267-.187-.436-.421-.475v-.008c.201-.063.337-.213.337-.437 0-.412-.378-.525-.698-.525h-.818l.001 2.04zm.477-.399v-.469h.275c.212 0 .351.057.351.226 0 .2-.192.243-.348.243h-.278zm0-.828v-.422h.243c.208 0 .316.059.316.2 0 .145-.107.222-.292.222h-.267zm1.632 1.227h.528l.782-1.31h.01v1.31h.488v-2.039h-.522l-.786 1.343h-.011v-1.343h-.49v2.039h.001zm2.151 0h.617l.704-.956h.001v.956h.496v-.956h.006l.699.956h.622l-.84-1.109.793-.93h-.596l-.682.852h-.005v-.852h-.492v.852h-.001l-.682-.852h-.593l.787.93-.834 1.109zm3.487 0h.528l.782-1.31h.008v1.31h.492v-2.039h-.522l-.788 1.343h-.012v-1.343h-.489l.001 2.039zm2.415 0h.465l-.011-1.444h.01l.519 1.444h.347l.532-1.444h.01l-.011 1.444h.482v-2.039h-.713l-.447 1.309h-.013l-.466-1.309h-.703l-.001 2.039zm3.966.055c.642 0 1.117-.438 1.117-1.084 0-.654-.475-1.064-1.117-1.064-.641 0-1.114.41-1.114 1.064 0 .644.475 1.084 1.114 1.084zm0-.45c-.346 0-.585-.267-.585-.634 0-.357.237-.624.585-.624s.587.267.587.624c.002.367-.242.634-.587.634zm2.636.45c.343 0 .616-.132.797-.338l-.346-.324a.52.52 0 0 1-.436.21c-.341 0-.581-.257-.581-.626 0-.361.247-.626.593-.626.154 0 .32.061.413.188l.334-.332c-.17-.198-.479-.299-.767-.299-.624 0-1.111.416-1.111 1.072-.001.635.473 1.075 1.104 1.075zm1.63-.055h.497v-1.62h.578v-.42h-1.652v.42h.579v1.619h-.002zm1.482 0h.76c.427 0 .796-.19.796-.647 0-.472-.368-.643-.798-.643h-.261v-.749h-.497v2.039zm.497-.395v-.515h.224c.206 0 .345.077.345.256 0 .187-.147.261-.345.261h-.224v-.002zm5.912-3.722H34.65a.545.545 0 0 1-.547-.544v-2.896c0-.299.247-.545.547-.545h1.532v3.985z"/><path fill="#E21F26" d="M36.182 22.733h1.532c.303 0 .55-.242.55-.544v-2.896a.549.549 0 0 0-.55-.545h-1.532v3.985z"/></svg>