<?xml version="1.0" encoding="utf-8"?>
<!-- Generator: Adobe Illustrator 21.0.2, SVG Export Plug-In . SVG Version: 6.00 Build 0)  -->
<svg version="1.1" id="Слой_1" xmlns="http://www.w3.org/2000/svg" xmlns:xlink="http://www.w3.org/1999/xlink" x="0px" y="0px"
	 viewBox="0 0 559 178" style="enable-background:new 0 0 559 178;" xml:space="preserve">
<style type="text/css">
	.st0{fill:#F9C412;}
</style>
<g>
	<g>
		<path d="M172.5,162.9H31.2c-1.8,0-3.3-1.5-3.3-3.3V18.2c0-1.8,1.5-3.3,3.3-3.3h141.3c1.8,0,3.3,1.5,3.3,3.3v141.3
			C175.9,161.4,174.4,162.9,172.5,162.9z M34.6,156.2h134.6V21.5H34.6V156.2z"/>
	</g>
	<g>
		<path d="M273.5,79.9V31.3h20.1c9.7,0,19.6,3.5,19.6,16.4c0,8-3.9,12.4-9.2,14.6l13.2,17.6H303l-11.4-15.8h-5.5v15.8
			C286.1,79.9,273.5,79.9,273.5,79.9z M286.1,53.7h8.1c3.6,0,6.1-1.9,6.1-5.6c0-3.7-2.5-5.6-6.1-5.6h-8.1V53.7z"/>
	</g>
	<g>
		<polygon points="359.9,31.3 359.9,42.5 338.1,42.5 338.1,49.9 357.8,49.9 357.8,60.9 338.1,60.9 338.1,68.8 360.3,68.8 
			360.3,79.9 325.5,79.9 325.5,31.3 		"/>
	</g>
	<g>
		<path d="M366.6,79.9l18.8-48.6H399l18.8,48.6h-13l-2.7-7.6h-19.8l-2.7,7.6H366.6z M386,61.9h12.3l-4.9-14
			c-0.4-1.2-0.8-2.4-1.2-4.9c-0.4,2.6-0.8,3.8-1.2,4.9L386,61.9z"/>
	</g>
	<g>
		<polygon points="438.4,31.3 438.4,68.5 460.3,68.5 460.3,79.9 425.8,79.9 425.8,31.3 		"/>
	</g>
	<g>
		<polygon points="481.7,31.3 481.7,68.5 503.6,68.5 503.6,79.9 469.1,79.9 469.1,31.3 		"/>
	</g>
	<g>
		<polygon points="518.4,79.9 518.4,63.3 499.7,31.3 514.1,31.3 524.7,51.4 535.2,31.3 549.6,31.3 530.9,63.3 530.9,79.9 		"/>
	</g>
	<g>
		<path d="M217.5,97.8c10.5,0,16.7,3.9,16.7,12.3c0,5.3-2.5,8.9-7.1,10.5c5.1,1.5,9,5.3,9,12c0,11-10.4,13.7-19.5,13.7h-20.8V97.8
			H217.5z M217.1,126.2h-8.6v10.1h8.6c3.8,0,6.3-1.2,6.3-5.1C223.5,127.4,220.9,126.2,217.1,126.2 M216.4,107.9h-7.8v9l7.8,0.1
			c3.3,0,5.3-1.7,5.3-4.5C221.6,109.6,219.7,107.9,216.4,107.9"/>
	</g>
	<g>
		<path d="M288.6,97.8v30.1c0,14.6-10.9,19.6-21.5,19.6s-21.5-4.9-21.5-19.6V97.8h12.6v29.4c0,6.5,3.5,8.8,8.9,8.8s8.9-2.3,8.9-8.8
			V97.8H288.6z"/>
	</g>
	<g>
		<rect x="300.6" y="97.8" width="12.6" height="48.6"/>
	</g>
	<g>
		<polygon points="338.2,97.8 338.2,134.9 360.1,134.9 360.1,146.4 325.6,146.4 325.6,97.8 		"/>
	</g>
	<g>
		<path d="M388,97.8c17.1,0,25,10.1,25,24.3s-7.9,24.3-25,24.3h-19.1V97.8H388z M388,108.9h-6.4v26.4h6.4c7.6,0,12-4.1,12-13.2
			C400,113,395.5,108.9,388,108.9"/>
	</g>
	<g>
		<rect x="423.1" y="97.8" width="12.6" height="48.6"/>
	</g>
	<g>
		<path d="M448.2,146.4V97.8h12l18.7,27.9c-0.2-2.3-0.3-5.3-0.3-8V97.8h12.6v48.6h-12l-18.7-27.8c0.2,2.3,0.3,5.3,0.3,8v19.9
			L448.2,146.4L448.2,146.4z"/>
	</g>
	<g>
		<path d="M527.7,96.8c5.1,0,10.3,1.1,14.8,3v12.1c-3.6-2.5-8.4-3.9-13.2-3.9c-7.7,0-15,4-15,14c0,12,8.7,14.3,14.1,14.3
			c1.4,0,2.5-0.1,3.3-0.3v-16.4h11.9v24.5c-4.9,2.1-10.4,3.3-15.8,3.3c-13.6,0-26.5-7.7-26.5-25.3C501.3,104,514.4,96.8,527.7,96.8"
			/>
	</g>
	<g>
		<g>
			<path class="st0" d="M125.8,31.3H193c1.6,0,3,1.4,3,3v17.9c0,1.7-1.3,3-3,3h-67.2c-1.7,0-3-1.4-3-3V34.4
				C122.9,32.7,124.2,31.3,125.8,31.3"/>
		</g>
		<g>
			<path class="st0" d="M87.5,61.7h67.2c1.6,0,3,1.4,3,3v17.9c0,1.7-1.3,3-3,3H87.5c-1.6,0-3-1.4-3-3V64.7
				C84.5,63.1,85.8,61.7,87.5,61.7"/>
		</g>
		<g>
			<path class="st0" d="M10.8,122.4H78c1.6,0,3,1.4,3,3v17.9c0,1.7-1.3,3-3,3H10.8c-1.6,0-3-1.4-3-3v-17.9
				C7.8,123.8,9.1,122.4,10.8,122.4"/>
		</g>
		<g>
			<path class="st0" d="M49.1,92h67.2c1.6,0,3,1.4,3,3v18c0,1.7-1.3,3-3,3H49.1c-1.6,0-3-1.4-3-3V95.1C46.1,93.4,47.5,92,49.1,92"/>
		</g>
	</g>
</g>
</svg>
