<svg xmlns="http://www.w3.org/2000/svg" width="14" height="14" viewBox="0 0 14 14"><path fill="#A69160" d="M-.002 3.382l.039 7.247a.25.25 0 0 0 .153.222l6.623 3.031a.33.33 0 0 0 .138.03.292.292 0 0 0 .217.088c.048 0 .095-.01.138-.03l6.539-3.1a.253.253 0 0 0 .152-.224V3.094c0-.008-.004-.015-.004-.021a.153.153 0 0 0-.01-.041c-.002-.01-.008-.018-.012-.027a.233.233 0 0 0-.02-.034l-.021-.023a.154.154 0 0 0-.029-.028c-.008-.007-.018-.013-.027-.019l-.018-.013-.02-.008-.018-.008L7.082.02a.324.324 0 0 0-.243.008L.177 3.062a.252.252 0 0 0-.16.226l.001.004a.231.231 0 0 0-.02.09zm13.037-.247l-5.87 2.869L.949 3.292 6.98.535l6.055 2.6zM7.459 13.32V6.442l5.958-2.91v6.961L7.459 13.32z"/></svg>