<svg xmlns="http://www.w3.org/2000/svg" width="64" height="64" viewBox="0 0 64 64"><path fill="#B49D69" d="M45.503 5.559l.583-1.391c.027-.047.063-.042.074.012l.117 1.478c.014.054.062.073.107.043.926-.609 1.76-1.028 1.887-1.773.008-.056-.03-.092-.084-.073a.75.75 0 0 0-.127.063c-.046.029-.072.014-.06-.04.068-.288.221-.945.12-1.374-.013-.054-.062-.065-.103-.028a1.756 1.756 0 0 0-.092.089c-.038.041-.063.03-.065-.025-.004-.367-.107-.877-.231-1.124a.08.08 0 0 0-.129-.021c-.015.013-.028.028-.043.044-.037.041-.069.033-.085-.02-.08-.292-.335-.899-.496-1.12-.031-.045-.111-.058-.156-.026-.228.155-.673.643-.847.892-.031.045-.065.042-.087-.009a.825.825 0 0 1-.025-.056.08.08 0 0 0-.129-.022c-.199.192-.47.64-.598.983-.02.052-.049.053-.07.002a1.77 1.77 0 0 0-.057-.115c-.025-.049-.075-.054-.105-.007-.24.372-.318 1.041-.351 1.335-.007.055-.035.061-.069.018a.644.644 0 0 0-.1-.102c-.045-.035-.094-.014-.104.041-.136.756.518 1.443 1.209 2.333.035.043.088.04.116-.007zm1.076 19.108c.012-.003.024-.006.036-.011.033-.01.049.006.039.038-.051.181-.111.583-.098.751.004.034.041.066.074.063.172-.011.564-.13.737-.208.03-.014.048 0 .043.033l-.005.038a.05.05 0 0 0 .063.053c.168-.039.455-.192.635-.334.026-.021.041-.013.037.021a.987.987 0 0 0-.007.079c-.003.033.022.053.054.037.248-.123.504-.453.617-.6.021-.027.037-.021.041.013.006.03.012.058.021.086.012.032.045.036.068.011.314-.359.189-.93.109-1.619-.004-.034-.033-.049-.063-.032l-.758.555c-.031.016-.047.003-.037-.03l.414-.821c.012-.032-.008-.059-.043-.057-.688.032-1.266-.009-1.572.349-.022.025-.014.058.021.064a.43.43 0 0 0 .089.006c.034 0 .043.016.02.041-.131.131-.422.432-.508.691-.01.032.013.055.045.047a.854.854 0 0 0 .078-.019c.033-.01.045.005.026.034-.116.194-.226.498-.239.668 0 .035.029.06.063.053zm-1.13-6.253c.01.033.053.057.086.048.166-.043.527-.234.684-.342.028-.02.047-.011.049.024l.002.038a.05.05 0 0 0 .07.04c.158-.07.41-.274.559-.447.022-.026.041-.021.043.014a.696.696 0 0 0 .008.079c.005.034.031.047.061.026.219-.166.408-.539.489-.704.017-.031.032-.028.044.004.01.028.021.055.036.08.019.029.052.027.067-.003.242-.411.01-.948-.203-1.61-.01-.033-.041-.041-.067-.02l-.638.688c-.027.021-.045.011-.041-.022l.248-.885c.005-.034-.021-.056-.053-.047-.67.161-1.246.23-1.479.638-.018.03-.002.06.031.06a.407.407 0 0 0 .09-.01c.033-.008.045.007.025.036-.103.153-.33.503-.363.774-.004.034.021.05.054.038l.071-.033c.031-.016.045-.004.033.028-.076.214-.125.533-.105.703a.049.049 0 0 0 .07.039l.035-.017c.029-.016.047-.004.045.03-.015.185.002.591.049.753zm6.106-9.124a.357.357 0 0 0-.019.086c-.002.034-.021.041-.041.015-.119-.141-.394-.458-.646-.568-.031-.014-.056.006-.052.04.002.021.007.046.013.078.006.034-.011.043-.037.023-.188-.133-.48-.271-.65-.302-.035-.006-.064.021-.059.055l.006.038c.006.033-.01.047-.041.035-.178-.069-.575-.169-.746-.172-.034 0-.071.033-.072.067-.006.168.075.567.137.745.01.032-.004.048-.037.04l-.039-.008a.05.05 0 0 0-.059.055c.021.169.146.467.271.657.02.029.01.043-.023.036-.031-.008-.057-.012-.078-.016-.033-.005-.056.018-.043.049.098.255.404.542.541.667.023.023.018.04-.018.041a.407.407 0 0 0-.088.011c-.033.008-.041.041-.019.065.324.341.899.272 1.589.271.034 0 .053-.026.041-.059l-.455-.801c-.013-.032.004-.046.034-.032l.785.517c.03.015.06-.001.062-.035.047-.693.143-1.269-.191-1.612-.023-.025-.058-.019-.066.014zm-3.825 2.161c-.164-.046-.574-.064-.765-.048-.034.003-.046-.015-.028-.044l.017-.035a.048.048 0 0 0-.039-.069c-.172-.019-.495.03-.712.104-.032.011-.044-.002-.028-.032.015-.028.024-.051.033-.072.015-.031-.003-.057-.038-.053-.273.033-.629.259-.783.36-.029.019-.043.007-.037-.026a.337.337 0 0 0 .012-.087c0-.034-.029-.049-.062-.032-.413.23-.481.798-.646 1.459-.008.033.014.057.048.053l.896-.245c.035-.004.045.014.023.041l-.696.629c-.021.027-.013.058.021.067.67.209 1.215.439 1.631.201.029-.017.031-.05.003-.067a.398.398 0 0 0-.081-.036c-.033-.011-.035-.029-.005-.044.167-.081.545-.267.713-.484.021-.027.007-.055-.026-.059a1.021 1.021 0 0 0-.08-.008c-.033-.002-.039-.019-.014-.041.176-.146.383-.396.453-.552a.05.05 0 0 0-.041-.069l-.038-.003c-.035-.001-.044-.02-.024-.048.109-.153.303-.511.346-.675.006-.034-.017-.076-.053-.085zm-5.501.853c.047.031.096.011.107-.043l.118-1.478c.012-.054.046-.059.073-.012l.584 1.391c.029.047.08.051.115.007.69-.889 1.344-1.577 1.207-2.332-.01-.055-.06-.076-.103-.041a.887.887 0 0 0-.101.102c-.035.043-.063.037-.068-.019-.032-.294-.109-.963-.352-1.334-.029-.047-.08-.042-.105.007a1.372 1.372 0 0 0-.057.115c-.021.051-.051.05-.069-.002-.128-.344-.397-.791-.599-.983-.039-.039-.104-.026-.129.023-.008.017-.018.036-.024.056-.021.051-.056.055-.089.009-.174-.25-.617-.737-.844-.892a.124.124 0 0 0-.158.027c-.16.221-.416.827-.496 1.119-.014.053-.047.061-.086.02A.25.25 0 0 0 41.111 8a.079.079 0 0 0-.127.021c-.125.248-.229.758-.232 1.124-.001.055-.027.065-.066.025a1.05 1.05 0 0 0-.09-.089c-.041-.038-.091-.026-.104.028-.102.429.051 1.086.119 1.374.015.055-.012.07-.059.042a.614.614 0 0 0-.129-.063c-.053-.019-.092.017-.083.072.131.742.965 1.16 1.889 1.77zm2.41 7.631c.031.014.061-.002.063-.035.046-.694.143-1.27-.191-1.612-.023-.024-.057-.019-.066.014a.408.408 0 0 0-.016.086c-.003.034-.021.041-.043.015-.119-.14-.393-.458-.646-.568-.031-.014-.055.006-.051.04.002.021.004.046.01.078.008.034-.008.043-.035.023-.188-.133-.48-.271-.65-.302-.035-.006-.064.021-.059.055l.006.038c.007.033-.01.047-.042.035-.176-.069-.575-.168-.746-.171a.077.077 0 0 0-.071.067c-.006.168.074.567.137.745.011.033-.004.048-.037.04l-.038-.008a.05.05 0 0 0-.06.055c.022.169.147.467.272.657.021.029.009.043-.024.035a1.021 1.021 0 0 0-.078-.015c-.033-.005-.056.017-.043.049.099.255.404.542.541.666.025.023.019.04-.018.041a.407.407 0 0 0-.088.011c-.033.008-.041.041-.018.066.324.341.899.271 1.588.271.035 0 .054-.026.041-.059l-.457-.802c-.014-.033.002-.047.033-.032l.786.517zM43.4 5.291c.031.015.061-.001.063-.036.047-.693.143-1.269-.191-1.611-.022-.024-.057-.019-.065.014a.354.354 0 0 0-.017.086c-.002.034-.021.041-.043.015-.119-.141-.393-.458-.646-.568-.032-.014-.056.006-.052.04a.843.843 0 0 0 .011.078c.007.034-.009.043-.037.023-.187-.133-.479-.271-.649-.303a.05.05 0 0 0-.06.055l.007.038c.008.034-.01.047-.041.035-.177-.069-.574-.169-.746-.172-.035 0-.07.033-.072.067-.006.168.074.567.137.745.012.032-.004.048-.037.04l-.038-.008a.05.05 0 0 0-.06.055c.023.169.148.467.273.657.02.029.008.043-.025.036a1.021 1.021 0 0 0-.078-.015c-.034-.005-.055.017-.043.049.099.255.404.542.541.666.025.023.018.04-.018.041a.415.415 0 0 0-.088.011c-.033.008-.041.041-.018.066.324.341.898.272 1.589.271.034 0 .053-.027.04-.059l-.455-.801c-.014-.032.003-.046.034-.032l.784.517zm4.565 4.22c.047-.693.143-1.269-.191-1.612-.022-.024-.057-.019-.066.014a.365.365 0 0 0-.019.087c-.002.034-.02.041-.041.015-.119-.141-.394-.458-.646-.568-.031-.014-.057.005-.053.04.003.021.006.047.012.079.006.034-.009.043-.037.022-.186-.133-.48-.271-.65-.302a.05.05 0 0 0-.059.056.274.274 0 0 0 .008.037c.006.033-.011.047-.043.035-.176-.069-.574-.168-.746-.171-.033 0-.07.033-.07.067-.008.168.074.567.135.745.012.033-.003.048-.037.04l-.037-.008a.047.047 0 0 0-.059.053c.021.169.146.467.271.657.02.029.01.043-.025.035a1.008 1.008 0 0 0-.077-.015c-.034-.005-.056.017-.043.049.098.255.403.542.54.666.025.023.019.04-.018.041a.36.36 0 0 0-.088.011c-.033.008-.041.041-.017.065.323.341.899.272 1.589.271.033 0 .052-.027.04-.059l-.455-.801c-.013-.032.003-.046.034-.032l.785.517c.034.016.061 0 .063-.034zm-7.02-8.371l-.039.002c-.033.004-.055.038-.039.069.07.156.277.406.451.552.027.022.021.039-.014.041a.958.958 0 0 0-.078.008c-.035.005-.049.032-.027.06.169.216.546.403.713.484.029.015.027.033-.006.043a.478.478 0 0 0-.08.036c-.029.017-.027.05.003.067.416.238.959.008 1.63-.201.033-.011.042-.041.021-.068l-.696-.629c-.021-.027-.013-.045.022-.041l.896.245c.033.004.057-.02.048-.053-.163-.661-.231-1.229-.646-1.459-.03-.017-.062-.001-.062.033 0 .028.004.057.011.087.008.034-.007.045-.035.026-.156-.101-.511-.327-.785-.36-.033-.004-.051.021-.037.053l.033.071c.016.03.004.044-.028.033-.218-.075-.54-.124-.712-.105-.034.004-.055.039-.039.069a.38.38 0 0 0 .018.034c.016.03.004.048-.029.045-.19-.015-.603.002-.767.049-.032.009-.058.052-.049.085.044.164.237.522.347.675.02.029.01.048-.025.049zm1.135 15.291c-.033.008-.041.041-.018.066.324.341.899.272 1.588.271.035 0 .054-.027.041-.059l-.455-.801c-.012-.032.004-.046.035-.032l.785.517c.03.015.06-.001.062-.036.046-.693.144-1.269-.19-1.611-.023-.025-.058-.019-.066.014a.311.311 0 0 0-.016.086c-.004.034-.021.041-.043.015-.119-.141-.393-.458-.646-.568-.03-.014-.055.006-.051.04a.86.86 0 0 0 .012.079c.006.034-.01.043-.037.023-.188-.133-.48-.272-.65-.303a.05.05 0 0 0-.059.055l.006.038c.008.034-.009.047-.041.035-.177-.069-.574-.169-.746-.172-.035 0-.07.033-.072.067-.006.168.074.567.137.745.011.033-.004.048-.038.04l-.037-.008a.05.05 0 0 0-.06.055c.022.169.147.467.272.657.019.029.009.043-.024.036-.031-.008-.057-.012-.078-.016-.035-.005-.055.018-.043.049.099.255.404.542.541.666.024.023.018.041-.018.041a.412.412 0 0 0-.091.011zm10.111 1.028c.035.004.058-.02.05-.053-.164-.661-.234-1.229-.646-1.459-.029-.017-.062-.001-.062.033 0 .028.004.057.01.087.009.033-.006.045-.035.026-.153-.101-.51-.327-.782-.36-.035-.004-.054.022-.039.053.008.02.02.043.033.072.016.03.004.043-.027.032-.219-.075-.541-.124-.713-.104a.049.049 0 0 0-.039.069c.006.011.01.022.018.034.016.03.004.048-.031.045-.188-.016-.599.002-.764.048-.033.009-.059.052-.049.085.044.164.236.522.347.675.021.028.011.047-.022.048l-.039.002c-.035.004-.055.038-.041.069.072.156.277.405.453.552.025.022.021.039-.015.041a.99.99 0 0 0-.079.008c-.033.005-.048.032-.025.06.168.216.543.403.711.484.031.015.027.033-.004.044a.4.4 0 0 0-.082.036c-.028.017-.026.05.002.067.416.238.959.008 1.632-.201.032-.01.041-.041.021-.067l-.695-.63c-.021-.026-.012-.045.022-.04l.89.244zm-4.087-3.001l.896-.245c.034-.004.044.014.021.041l-.695.629c-.021.027-.014.058.021.067.67.21 1.213.439 1.629.202.03-.018.033-.05.002-.068a.415.415 0 0 0-.08-.036c-.033-.011-.035-.029-.004-.044.166-.081.543-.267.711-.483.021-.027.008-.055-.025-.06a.973.973 0 0 0-.08-.008c-.035-.002-.041-.019-.014-.041.176-.146.383-.396.453-.552.014-.031-.006-.065-.041-.069a3.32 3.32 0 0 0-.039-.003c-.033-.001-.043-.02-.023-.048.109-.153.303-.512.348-.675.008-.033-.018-.076-.051-.085-.164-.046-.574-.064-.764-.048-.035.003-.047-.015-.029-.045.006-.012.012-.023.016-.034.017-.031-.004-.066-.039-.069-.172-.019-.494.03-.711.104-.031.011-.043-.002-.027-.032.016-.028.023-.051.033-.072.014-.031-.004-.057-.039-.053-.272.033-.629.259-.783.36-.027.019-.043.007-.036-.026a.391.391 0 0 0 .011-.087c0-.034-.029-.049-.061-.032-.412.23-.482.798-.646 1.459-.01.033.01.057.046.053zM59.391 2.544l-.039-.008a.051.051 0 0 0-.06.055c.022.169.147.467.272.657.021.029.008.043-.024.036a1.123 1.123 0 0 0-.078-.015c-.034-.005-.056.017-.043.049.099.255.403.542.541.666.024.023.019.04-.019.041a.432.432 0 0 0-.088.011c-.033.008-.041.041-.018.066.324.341.898.272 1.589.271.033 0 .054-.027.039-.059l-.452-.801c-.015-.032.002-.046.032-.031l.785.517c.03.014.062-.001.063-.036.045-.693.141-1.269-.193-1.612-.023-.024-.057-.019-.066.014a.408.408 0 0 0-.016.086c-.002.034-.02.041-.043.015-.117-.14-.393-.458-.645-.567-.033-.014-.058.005-.054.04a.66.66 0 0 0 .013.078c.006.034-.011.043-.037.023-.187-.133-.479-.271-.649-.302a.05.05 0 0 0-.06.055l.006.038c.008.033-.01.047-.041.035-.176-.069-.573-.169-.746-.171-.034-.001-.069.033-.071.067-.006.168.073.567.138.745.011.03-.004.045-.036.037zm4.49 21.182l.043-.066c.016-.03.002-.058-.031-.058-.276 0-.656.183-.822.263-.03.016-.045.003-.032-.029a.45.45 0 0 0 .021-.086c.006-.033-.023-.052-.056-.039-.444.182-.592.746-.832 1.4-.012.031.009.057.043.057l.931-.162c.033 0 .043.019.018.043l-.746.551c-.023.024-.018.056.014.069.631.275 1.129.566 1.564.384.006-.002-.002-.009.002-.012v-.061a.462.462 0 0 0-.066-.04c-.031-.014-.031-.033 0-.044l.066-.023v-2.126c-.031.005-.064.009-.092.015-.035.007-.045-.008-.025-.036zm-3.526-3.851c-.026-.021-.059-.013-.067.02-.213.662-.444 1.199-.203 1.61.017.03.052.032.067.003a.44.44 0 0 0 .035-.08c.013-.033.029-.035.045-.004.082.164.271.537.488.703.028.021.057.008.061-.026a.696.696 0 0 0 .008-.079c.002-.033.02-.039.041-.014.148.174.402.378.561.447a.047.047 0 0 0 .068-.039.234.234 0 0 0 .004-.039c.002-.033.02-.043.049-.023.154.109.518.3.684.343.033.009.076-.016.086-.048.048-.163.064-.568.05-.756-.004-.033.015-.045.045-.029.013.006.022.012.035.017a.048.048 0 0 0 .069-.039c.021-.17-.03-.489-.106-.703-.011-.032.004-.044.032-.028.029.015.054.025.072.033.033.014.06-.004.056-.037-.033-.271-.265-.621-.365-.775-.021-.028-.008-.043.026-.035.029.007.06.01.089.01.034 0 .049-.029.032-.059-.233-.408-.809-.477-1.479-.639-.033-.008-.057.014-.053.048l.248.885c.004.033-.014.044-.041.022l-.637-.689zm-8.171-17.57l.785-.517c.03-.015.047 0 .034.032l-.455.801c-.012.032.007.059.041.059.688.002 1.265.071 1.589-.271.022-.025.016-.057-.019-.066a.516.516 0 0 0-.089-.011c-.034-.001-.043-.018-.018-.041.137-.125.443-.411.541-.666.012-.032-.008-.055-.043-.049a1.021 1.021 0 0 0-.078.015c-.033.008-.045-.007-.025-.036.125-.19.25-.488.273-.657a.05.05 0 0 0-.059-.055l-.039.008c-.033.008-.047-.007-.037-.04.063-.178.143-.576.137-.745 0-.033-.035-.067-.072-.066-.172.002-.569.102-.746.171-.03.013-.049-.001-.041-.035l.007-.038c.004-.034-.022-.062-.06-.055-.17.031-.465.169-.649.302-.026.021-.043.011-.037-.023.006-.032.011-.056.013-.078.004-.034-.021-.054-.054-.04-.252.11-.524.427-.646.568-.022.026-.039.02-.043-.015a.408.408 0 0 0-.016-.086c-.01-.032-.043-.039-.066-.014-.333.343-.237.919-.19 1.612.002.035.028.051.062.036zm7.207 4.881l-.037-.008c-.035-.006-.064.021-.06.055.021.169.146.467.271.657.021.028.008.043-.024.035a1.123 1.123 0 0 0-.078-.015c-.032-.005-.056.017-.043.049.099.255.403.542.541.666.024.023.019.04-.019.041a.372.372 0 0 0-.088.011c-.033.008-.041.04-.018.065.326.341.898.272 1.589.271.035 0 .054-.026.041-.059l-.454-.801c-.015-.032.002-.046.032-.032l.786.519c.031.014.059-.001.061-.036.047-.693.144-1.269-.19-1.611-.022-.025-.058-.019-.066.014a.408.408 0 0 0-.016.086c-.002.034-.021.041-.041.015-.119-.141-.396-.458-.646-.568-.031-.014-.056.005-.054.04a.64.64 0 0 0 .013.079c.006.034-.009.043-.037.023-.187-.134-.479-.272-.649-.303a.051.051 0 0 0-.06.055l.006.038c.009.034-.008.047-.041.035-.176-.069-.573-.168-.746-.171-.032 0-.069.033-.071.067-.006.169.076.567.138.745.007.031-.008.046-.04.038zm-8.718.032c.048.031.097.011.106-.043l.117-1.478c.015-.054.047-.059.076-.012l.582 1.391c.029.047.082.051.115.007.691-.888 1.344-1.576 1.209-2.331-.012-.054-.061-.076-.104-.041a.75.75 0 0 0-.101.102c-.034.043-.063.037-.069-.018-.031-.294-.109-.963-.351-1.335-.03-.046-.08-.042-.104.007-.019.031-.035.068-.057.115-.021.051-.052.05-.07-.002-.129-.344-.398-.792-.599-.983a.08.08 0 0 0-.129.022c-.008.017-.019.036-.024.056-.021.051-.058.055-.088.009-.174-.249-.617-.737-.845-.892-.047-.031-.125-.018-.157.027-.162.221-.416.827-.496 1.119-.011.054-.045.062-.082.02l-.043-.044a.08.08 0 0 0-.129.021c-.123.247-.227.757-.232 1.124 0 .056-.026.066-.064.025a1.044 1.044 0 0 0-.091-.089c-.043-.038-.092-.027-.105.027-.101.43.051 1.086.121 1.374.012.053-.014.069-.062.04a.607.607 0 0 0-.128-.063c-.053-.019-.092.018-.082.072.126.745.96 1.163 1.886 1.773zm4.806 1.719c.031.014.062-.001.063-.035.045-.693.144-1.269-.19-1.612-.023-.025-.058-.019-.066.014a.407.407 0 0 0-.018.087c-.002.034-.021.04-.041.014-.119-.141-.394-.458-.646-.568-.031-.014-.055.006-.051.04.002.021.004.046.01.078.008.034-.008.043-.035.023-.188-.133-.482-.271-.652-.302a.048.048 0 0 0-.057.055c0 .012.004.024.006.038.006.033-.01.047-.041.035-.178-.069-.576-.169-.746-.171-.035-.001-.072.033-.072.067-.006.168.074.567.136.745.012.032-.005.048-.037.04l-.037-.008a.05.05 0 0 0-.06.055c.023.17.146.467.273.657.018.029.008.043-.025.036a.936.936 0 0 0-.078-.015c-.034-.005-.057.017-.045.049.101.255.406.542.541.666.025.023.019.04-.016.041a.353.353 0 0 0-.088.011c-.035.008-.041.041-.018.065.324.342.9.273 1.588.271.035 0 .055-.027.041-.059l-.455-.801c-.012-.033.002-.047.035-.032l.781.516zm2.705-.241l.018.076c.01.033-.004.044-.033.027-.199-.114-.506-.223-.678-.237-.036-.002-.061.028-.053.061.002.012.006.024.01.037.01.033-.004.048-.037.039-.184-.051-.59-.111-.762-.097-.033.003-.066.04-.064.074.012.168.133.557.211.728.014.031.002.048-.033.043a.515.515 0 0 0-.039-.004c-.033-.002-.061.027-.053.06.039.167.193.451.338.627.021.027.014.042-.021.038a.948.948 0 0 0-.077-.007c-.035-.002-.056.022-.039.053.125.244.459.499.606.609.027.021.021.038-.014.042a.416.416 0 0 0-.086.021c-.033.012-.037.044-.012.066.363.312.941.189 1.639.109.035-.004.049-.032.033-.062l-.561-.75c-.019-.03-.004-.046.028-.035l.832.409c.033.01.062-.008.06-.042-.033-.68.008-1.251-.354-1.554-.024-.022-.06-.013-.063.021a.414.414 0 0 0-.008.087c.002.034-.017.042-.041.019-.134-.128-.439-.417-.699-.501-.037-.012-.057.01-.048.043zm-3.575-5.045a.744.744 0 0 0-.092-.089c-.041-.038-.09-.026-.102.028-.1.429.051 1.085.119 1.373.014.054-.012.07-.059.041a.591.591 0 0 0-.129-.063c-.054-.019-.093.018-.082.072.125.746.959 1.164 1.885 1.773.047.031.096.011.106-.042l.119-1.478c.013-.054.045-.059.074-.012l.581 1.391c.029.047.082.051.115.007.691-.889 1.345-1.576 1.209-2.332-.01-.054-.059-.076-.102-.041a.702.702 0 0 0-.102.102c-.033.043-.063.037-.068-.018-.033-.294-.111-.963-.352-1.335-.029-.046-.078-.042-.105.007a3.144 3.144 0 0 0-.057.115c-.018.051-.047.05-.067-.002-.127-.344-.396-.792-.598-.983a.08.08 0 0 0-.129.022l-.025.056c-.02.051-.055.055-.086.01-.174-.25-.619-.737-.846-.893-.047-.031-.125-.018-.158.027-.16.221-.416.827-.496 1.12-.014.053-.047.061-.084.02l-.043-.044a.08.08 0 0 0-.129.021c-.125.247-.229.758-.232 1.124.004.054-.026.064-.065.023zm2.616 21.516l.002.038c.004.033.039.054.069.04.158-.07.41-.274.56-.448.021-.025.039-.02.041.014s.006.058.008.079c.006.034.033.048.061.026.219-.166.408-.539.49-.703.016-.031.033-.028.043.004.01.029.021.055.037.08.018.029.051.027.068-.002.24-.412.008-.948-.203-1.611-.012-.032-.041-.041-.068-.02l-.639.688c-.025.021-.045.012-.041-.022l.25-.885c.004-.034-.021-.056-.055-.048-.67.162-1.244.23-1.478.639-.019.029-.002.059.032.059a.396.396 0 0 0 .088-.01c.033-.008.046.007.025.035-.102.153-.33.504-.363.775-.004.033.021.051.054.037a.815.815 0 0 0 .071-.033c.031-.016.045-.004.033.028-.076.215-.125.533-.104.703a.048.048 0 0 0 .069.039c.013-.005.021-.011.035-.017.029-.017.049-.005.045.029-.016.187.002.593.049.755.011.033.054.058.086.048.166-.043.527-.233.685-.342.027-.019.048-.01.05.025zm-17.438-.513c.033.01.057-.016.047-.049-.124-.459-.672-.676-1.297-.996-.029-.016-.059 0-.063.033l.043.932c-.004.034-.024.04-.047.014l-.457-.799c-.021-.027-.054-.026-.072.004-.357.581-.715 1.031-.588 1.482.01.033.041.043.065.02a.481.481 0 0 0 .056-.069c.02-.028.037-.026.045.007.037.18.125.588.297.803.021.027.051.02.063-.012a.368.368 0 0 0 .026-.074c.01-.031.029-.033.044-.002.101.204.294.464.429.57.025.021.064.011.078-.021l.014-.036c.01-.033.029-.037.053-.011.123.143.426.418.574.5.03.016.078.004.096-.026.086-.146.207-.534.238-.72.006-.033.025-.04.051-.017l.029.024a.05.05 0 0 0 .078-.021c.063-.159.094-.48.074-.706-.003-.035.014-.042.039-.02a.679.679 0 0 0 .063.05c.027.021.057.011.063-.023.035-.271-.098-.666-.157-.839-.013-.033.002-.045.033-.029a.415.415 0 0 0 .083.031zm-1.957 2.34c.033.01.057-.016.047-.049-.123-.459-.672-.676-1.296-.996-.03-.016-.06 0-.063.033l.043.932c-.004.034-.024.04-.045.014l-.459-.799c-.021-.027-.054-.025-.072.004-.357.581-.715 1.031-.586 1.482.008.033.041.043.064.021a.417.417 0 0 0 .055-.069c.02-.028.037-.026.045.007.037.18.125.588.297.803.021.027.051.021.063-.012a.436.436 0 0 0 .027-.074c.011-.031.028-.033.044-.002.1.204.293.463.429.57.026.021.063.011.077-.021l.014-.036c.01-.032.03-.037.053-.011.123.143.426.418.574.5.03.016.08.004.098-.026.086-.146.205-.534.236-.72.006-.033.026-.04.053-.018l.027.025a.05.05 0 0 0 .079-.021c.062-.159.095-.48.074-.706-.003-.035.015-.043.039-.02.024.021.045.036.063.049.026.021.057.012.061-.022.035-.271-.098-.667-.156-.839-.013-.033.002-.044.033-.029a.542.542 0 0 0 .082.03zm-2.723-2.541l-.758.555c-.031.016-.047.002-.037-.03l.414-.821c.012-.033-.008-.059-.043-.057-.688.032-1.267-.008-1.572.348-.023.026-.014.059.021.064a.427.427 0 0 0 .089.008c.034-.002.043.015.018.039-.129.131-.422.433-.506.691-.012.033.013.055.045.048l.078-.019c.033-.01.043.004.026.033-.116.197-.226.5-.239.67-.004.034.027.06.062.052l.037-.01c.032-.011.049.005.038.037-.051.181-.111.583-.098.751.004.034.041.066.075.064.171-.012.563-.131.737-.208.031-.015.048-.001.043.032-.002.014-.004.025-.004.038a.05.05 0 0 0 .061.053c.168-.039.455-.192.635-.334.027-.021.043-.013.037.021a.642.642 0 0 0-.006.079c-.003.034.021.053.053.037.248-.122.506-.452.617-.599.021-.027.037-.021.043.012.004.031.01.059.021.086.012.032.046.037.067.011.315-.358.19-.929.11-1.619-.004-.034-.03-.049-.064-.032zm-4.967 1.888l-.638.688c-.027.021-.045.012-.041-.021l.248-.885c.005-.035-.02-.057-.053-.049-.669.162-1.244.23-1.477.639-.017.029-.002.059.032.059a.347.347 0 0 0 .089-.01c.034-.008.046.008.026.036-.102.153-.331.503-.364.774-.005.034.021.051.054.037a.792.792 0 0 0 .072-.033c.03-.016.045-.004.033.029-.076.214-.125.533-.106.702a.048.048 0 0 0 .07.039l.034-.017c.031-.016.049-.004.046.029-.017.188.003.594.049.756.009.033.053.057.086.048.165-.042.528-.233.683-.343.029-.02.048-.01.049.024l.004.038a.048.048 0 0 0 .069.039c.158-.069.411-.273.558-.447.022-.025.04-.02.042.014a.628.628 0 0 0 .008.079c.004.034.032.048.06.026.22-.166.409-.539.489-.703.016-.031.034-.029.045.004.01.028.021.055.036.08.018.029.052.027.068-.002.241-.412.009-.948-.204-1.611-.009-.03-.04-.039-.067-.019zm-.473-9.078c.021-.008.043-.019.072-.033.031-.015.045-.004.033.028-.076.215-.125.533-.105.703a.05.05 0 0 0 .07.039.359.359 0 0 0 .034-.017c.03-.017.048-.004.046.029-.017.187.002.593.048.755.01.033.053.057.087.048.164-.043.527-.234.683-.342.028-.02.048-.011.049.024.001.013.001.026.003.038a.05.05 0 0 0 .07.04c.157-.07.41-.274.559-.447.021-.026.039-.021.041.014.002.032.006.057.008.079.005.034.033.047.062.026.219-.166.408-.539.49-.704.015-.031.033-.028.044.004.01.028.022.055.036.08.018.029.051.027.068-.002.24-.412.009-.948-.203-1.61-.011-.033-.042-.041-.068-.02l-.638.688c-.026.021-.046.011-.041-.023l.249-.884c.004-.034-.021-.056-.055-.048-.669.161-1.244.23-1.477.638-.018.03-.002.06.033.06a.396.396 0 0 0 .088-.01c.033-.008.045.007.025.036-.102.154-.33.504-.363.775-.006.033.02.05.052.036zm31.216 17.262l-.636.688c-.026.021-.045.013-.041-.022l.248-.885c.004-.033-.021-.056-.054-.047-.67.16-1.246.229-1.479.637-.018.031-.002.061.033.061a.457.457 0 0 0 .088-.01c.033-.008.045.007.027.035-.104.152-.332.504-.365.773-.004.034.021.051.053.038l.074-.032c.029-.017.043-.005.031.027-.074.214-.123.533-.105.703a.05.05 0 0 0 .07.039l.035-.018c.029-.017.049-.005.045.029-.016.188.002.594.049.755.01.033.053.058.086.05.166-.043.529-.234.684-.344.027-.021.047-.011.049.023l.002.037a.05.05 0 0 0 .07.041c.158-.07.41-.274.559-.447.023-.026.039-.021.041.014.005.032.007.057.009.078.006.034.032.048.062.025.217-.166.406-.539.488-.703.016-.029.033-.027.045.005.01.028.021.055.035.079.018.029.051.027.068-.002.24-.411.008-.947-.203-1.609-.01-.029-.041-.038-.068-.018zm-2.811-2.436c.236.143.656.182.843.196.035.003.039.021.013.042a.633.633 0 0 0-.064.063c-.02.027-.008.057.027.063.476.072.896-.336 1.445-.77.027-.021.023-.054-.006-.07l-.879-.339c-.031-.017-.027-.038.006-.046l.924-.092c.035-.008.047-.037.027-.066-.395-.558-.668-1.063-1.137-1.129-.035-.005-.058.02-.045.051.012.027.022.053.041.078.02.028.01.044-.023.037-.182-.039-.596-.123-.863-.056-.033.009-.039.038-.016.063l.057.055c.027.023.021.039-.014.041-.23.008-.549.077-.701.156-.031.016-.037.055-.012.078a.331.331 0 0 0 .027.026c.026.022.021.043-.013.053-.183.053-.56.216-.692.317-.029.021-.035.07-.017.098.101.137.412.402.569.505.029.019.027.04-.004.054l-.035.016a.052.052 0 0 0-.014.08c.125.119.408.278.625.353.033.011.033.028.002.043-.028.014-.051.025-.069.036-.028.016-.03.047-.002.064zM61.854 9.72c-.717.237-1.359 1.109-2.017 1.109-.267.328-1.188 1.662-1.351 1.662 0 .185-.297.887-.446.887-.213.825-.854 1.109-1.123 1.884-.188 0-.642.901-.979 1.301.027-.12.045-.235.045-.318 0-.039-.039-.064-.076-.052-.014.004-.026.01-.04.015-.037.015-.058 0-.05-.038.039-.211.064-.676.029-.866-.008-.039-.053-.071-.092-.065a1.229 1.229 0 0 0-.174.044c.402-.536.678-1.019.586-1.533-.01-.054-.061-.076-.104-.041a.75.75 0 0 0-.101.102c-.034.043-.063.037-.069-.018-.031-.294-.109-.963-.351-1.335-.028-.046-.08-.042-.104.008-.019.031-.035.067-.058.115-.021.051-.051.05-.069-.002-.127-.344-.398-.792-.599-.983a.08.08 0 0 0-.129.022c-.008.017-.019.036-.024.056-.021.051-.056.055-.088.009-.175-.25-.617-.737-.845-.892-.047-.031-.125-.018-.157.027-.162.221-.416.827-.496 1.12-.015.053-.05.061-.086.02l-.043-.045a.082.082 0 0 0-.13.021c-.123.247-.228.758-.229 1.124-.002.055-.029.065-.066.025a.917.917 0 0 0-.092-.089c-.041-.038-.09-.026-.102.027-.103.43.051 1.086.119 1.374.014.054-.013.069-.06.04a.646.646 0 0 0-.13-.063c-.053-.019-.092.018-.084.072.113.67.8 1.077 1.609 1.595a4.11 4.11 0 0 0-.307.437c-.021.034-.041.029-.051-.009a.504.504 0 0 0-.031-.095c-.018-.036-.055-.037-.078-.005-.209.289-.189.661-.105 1.1-.297.532-.506 1.138-.768 1.686-.225.474-.459.944-.695 1.414-.268-.812-.516-1.471-1.094-1.725-.053-.022-.098.006-.092.061a.982.982 0 0 0 .029.139c.018.052-.004.073-.053.047-.267-.138-.871-.448-1.316-.459-.057-.001-.079.042-.053.091.017.031.035.066.063.11.03.046.015.069-.041.057-.36-.087-.886-.116-1.159-.06a.08.08 0 0 0-.053.118l.032.052c.03.046.016.076-.041.077-.308.003-.964.095-1.222.194-.053.02-.086.092-.065.144.097.255.462.803.663 1.032.035.041.023.072-.031.08l-.063.012a.077.077 0 0 0-.053.117c.137.238.508.609.813.817.046.031.04.06-.016.067-.053.008-.092.018-.127.025-.055.012-.072.059-.033.1.304.322.938.564 1.22.669.053.02.052.049 0 .071a.635.635 0 0 0-.124.069c-.046.032-.037.085.014.108.543.244 1.162.023 1.895-.283-.241.451-.487.9-.741 1.346-.365.644-.716 1.319-1.119 1.939-.108.166-.864.95-.832 1.102.067.328-1.608-.941-1.748-1.072-.661-.619-1.479-1.134-2.264-1.646.437.023.799-.01 1.054-.237.027-.026.021-.063-.016-.074a.403.403 0 0 0-.1-.02c-.039-.005-.048-.022-.017-.047.163-.128.532-.421.663-.696.018-.035-.006-.062-.047-.059a1.747 1.747 0 0 0-.09.01c-.039.006-.049-.01-.025-.041.156-.201.318-.521.355-.709.008-.037-.023-.069-.063-.066a.95.95 0 0 0-.043.007c-.039.007-.055-.012-.04-.047.082-.192.201-.63.206-.817.001-.039-.037-.08-.076-.082-.195-.011-.656.066-.861.129-.037.012-.056-.005-.045-.041l.01-.042c.008-.037-.023-.07-.063-.066-.194.021-.541.149-.763.282-.033.021-.051.01-.04-.027.009-.035.014-.063.019-.086.006-.037-.02-.063-.057-.049-.296.101-.631.432-.775.578-.027.027-.047.018-.047-.02a.515.515 0 0 0-.012-.098c-.01-.037-.047-.047-.075-.021-.349.306-.336.83-.332 1.465-1.034-.729-2.067-1.459-3.103-2.188.467-.07.846-.178 1.059-.479.021-.031.01-.066-.029-.07a.507.507 0 0 0-.103.002c-.04.004-.052-.014-.026-.044.135-.163.434-.538.502-.842.01-.038-.02-.06-.057-.048a1.156 1.156 0 0 0-.086.03c-.037.015-.053 0-.035-.036.111-.236.202-.594.199-.789 0-.039-.038-.064-.075-.052-.015.004-.026.009-.041.015-.037.015-.056 0-.049-.039.039-.211.063-.675.028-.866-.006-.038-.053-.071-.092-.064-.193.031-.629.208-.816.316-.034.019-.057.006-.053-.033v-.043a.055.055 0 0 0-.074-.053c-.188.063-.498.267-.688.448-.027.028-.047.02-.046-.02a1.337 1.337 0 0 0 0-.09c-.002-.039-.032-.058-.065-.037-.269.166-.524.569-.637.748-.021.034-.041.029-.051-.009a.529.529 0 0 0-.031-.095c-.018-.036-.056-.037-.078-.005-.215.297-.187.683-.099 1.139l-1.162-.818c-2.021-1.425-4.171-3.139-4.044-5.798l.094-2.946c.023-.747.534-.822.691-1.49-.206.058-.563.198-.563.444-.336.211-.868.116-1.237.111.04.125.113.212.113.333.311-.148.469-.048.788 0l-.438 3.796c-.072.625.165 1.1-.586 1.071a7.271 7.271 0 0 1-1.204-.123c-.673-.135-1.156-.309-1.702-.309-.521-.167-1.253-.371-1.796-.222 0 .196-1.907.128-1.907.666 1.295-.052 3.196-.825 4.265.221-.833.382-2.134 1.536-2.134 2.328.561 0 .674-.997 1.012-.997l-.112.997c.79 0 .267-1.329.786-1.329.131-.254.898-.542.898-.777.776 0 1.497.333 2.244.333.465.557.805 1.195 1.346 1.553 0 .27.515.804.725 1.074.311.401.285.394.285.921-.645.133-1.564.998-2.02.998-.415.615-1.909 1.32-1.909 2.106-.515.408-.838 1.185-1.348 1.442 0 .546-1.02 1.601-.335 2.105.211-.666.297-1.604.898-1.996 0-.185.184-.553.449-.553l.111 1.662c-.266 0-.4.459-.448.665.313-.032.454-.332.673-.332.096.377.129 1.331.561 1.331-.002-.521-.065-1.481-.447-1.885v-1.5c0-.68.28-.739.783-1.164.757-1.24 2.156-1.635 3.48-2.218.135.399.699 2.218.226 2.218 0 .601-.45 1.436-.45 2.33.172 0 .896-1.973.896-2.33.428.141.701.553 1.125.553.563.332.598 1.066 1.123 1.221-.119-.377-.34-.803-.34-1.107-.236 0-1.074-.652-1.231-.887-.595 0-.667-1.297-.675-1.773.839.225 1.773 1.112 2.476 1.601a44.204 44.204 0 0 1 5.981 4.995c.435.433 2.431 2.014 2.431 2.607.011.189.335.984.422.984-.449 3.122-.299 6.555-.299 9.707 0 1.335-.225 2.555-.225 3.771 0 1.449-.235 2.264-.267 3.78-.024 1.312-.696 3.04-.339 4.353.329 1.205-.365 2.009-.409 3.25l-.013.252c-.586 1.043-.855 2.181-.484 3.361a6.271 6.271 0 0 1-.082.442c-.15.289-.433.743-.8.911-.331.15-.358.361-.345.613-.268.242-.455.56-.551.912l-.332.271c-.332.101-.732.194-1.166.313-1.067.295-1.367.844-1.367.844.471-.254 1.281-.127 1.838.043.555.169 2.605.253 3.374.084.771-.17 1.538-.465 2.307-.17.771.297 3.46-.252 5.04-.295 1.58-.041 2.693.293 2.693.293-.086-.295-.172-.506-.898-.76-.725-.252-.213-.422-.768-.929a19.01 19.01 0 0 0-.479-.418c0-.003 0-.006-.002-.01a15.68 15.68 0 0 0-1.111-2.485 12.47 12.47 0 0 1-.213-2.141c-.14 0-.474-2.616-.336-3.104.295 0-.527-3.488-.562-4.024-.136-2.063-.604-8.748-.724-12.407-.059-2.001-.416-3.457-.481-5.457.354-1.047.998-2.639 1.353-3.682.75-2.216 2.35-4.419 3.942-6.111-.129.137.162.49.261.554.397-1.485 1.629-.466 2.457.257.811.707 1.42 1.604 2.022 2.49.685 1.014 1.446 2.124 1.64 3.355.164 1.051-.381 2.051-.381 3.145-.27 0-.131 2.885-.451 2.885.088.303.027.25.338.332 0-.342.391-2.773.449-2.773 0-.889.195-1.681.523-2.66.492-1.464 1.352.594 1.721.776.039.17.082.322.125.479V28.98c-.041-.094-.084-.183-.125-.298.113.035.15 0 .113-.111l.012.002v-.523c-.775-.049-1.807-.643-1.807-1.254-.313 0-.269-1.331-.676-1.331 0-.751-.672-1.314-.896-1.995-.185-.094-1.573-1.864-1.573-2.108.244.11.316.193.674.223 0-.098-1.273-1.329-1.121-1.329 0-.326-.338-.675-.338-.998-1.402-.693-.199-1.513 0-2.441 1.182.239 1.711 2.884 2.133 2.884-.004-.319-.104-1.775-.561-1.775-.104-.401-.699-1.442-1.234-1.442 0-.87 2.244-.993 2.244-1.44.192 0 .377-.029.555-.069-.137.436-.215.805-.039 1.107.018.03.051.032.068.002a.362.362 0 0 0 .036-.08c.011-.032.029-.035.043-.004.082.164.271.537.49.703.026.021.058.007.062-.026a.65.65 0 0 0 .008-.079c.002-.034.02-.04.041-.014.147.174.402.377.559.448a.05.05 0 0 0 .07-.041l.004-.038c0-.034.02-.044.049-.024.154.108.518.3.682.342.035.009.078-.016.088-.048.045-.163.064-.568.047-.755-.002-.034.017-.046.047-.03l.033.017c.033.015.068-.005.07-.039.02-.169-.029-.488-.105-.703-.012-.032.002-.044.033-.028.029.015.053.024.072.033.033.013.059-.004.055-.038-.035-.271-.264-.622-.365-.774-.02-.029-.008-.043.025-.036.031.007.061.01.09.01.033 0 .049-.03.031-.06-.104-.181-.277-.294-.494-.379.178-.037.359-.065.553-.065 0-.036.142-.076.349-.116v-.883h-.013c.005-.017.011-.036.013-.053l-.237.054a8.39 8.39 0 0 0-1.464.162c-.866.171-1.704.459-2.575.614.338-1.653 2.303-3.553 4.276-3.826V9.133l-.123.033c-.553 0-1.775.078-2.023.554zM39.063 20.482a25.51 25.51 0 0 0-.267-.188l.446-.377c.033-.021.053-.007.044.03l-.223.535zm4.333 3.053c-.037-.026-.076-.051-.111-.077-.075-.054-.151-.106-.229-.161l.701-.361c.037-.012.055.005.036.039l-.397.56zm7.689-1.879l-.847-.664c-.036-.039-.022-.07.033-.067l1.08.217c-.085.171-.176.343-.266.514zm2.799-2.623c.074-.159.14-.308.201-.451l.293-.036c-.187.239-.36.487-.494.487zm.223-3.386l.076-.951c.012-.054.045-.059.074-.012l.309.734c-.216-.059-.36.056-.459.229zm4.269 4.938c-.483-.396-1.129-1.221-1.571-1.221.08-.304.217-.402.338-.663.557.44.936 1.177 1.233 1.884zm3.823-5.864l.111.393c.004.034-.015.044-.041.022l-.306-.329c.08-.028.158-.056.236-.086zm1.151 19.965c.029 0 .06-.004.088-.012.035-.007.047.008.027.036-.102.153-.33.504-.365.774-.004.033.023.051.055.037.021-.008.043-.02.072-.033.031-.016.045-.004.033.027-.076.215-.125.533-.105.703a.046.046 0 0 0 .068.039.29.29 0 0 0 .035-.018c.031-.016.049-.004.045.029-.016.188.004.594.049.756.01.033.053.058.086.049.133-.034.383-.16.562-.266v-2.625c-.304.09-.549.211-.681.439-.018.033-.003.065.031.065zm-35.738-15.69c-.034 0-.07.033-.072.067-.006.168.075.567.137.745.01.033-.004.049-.037.039l-.038-.008a.05.05 0 0 0-.06.055c.023.17.148.467.273.658.019.027.008.043-.025.035-.031-.008-.057-.012-.078-.016-.035-.006-.056.018-.043.049.098.256.404.542.541.666.025.023.018.041-.018.041a.36.36 0 0 0-.088.012c-.033.008-.041.041-.018.064.324.342.9.273 1.589.271.033 0 .052-.026.039-.059l-.454-.801c-.013-.032.003-.046.034-.031l.785.517c.031.015.06-.001.062-.035.046-.693.142-1.269-.191-1.612-.024-.023-.058-.019-.067.015a.484.484 0 0 0-.016.086c-.003.034-.02.04-.042.015-.119-.141-.393-.458-.645-.568-.032-.014-.057.006-.053.04.003.021.006.046.012.078.006.034-.009.043-.037.023-.186-.133-.48-.271-.65-.302a.05.05 0 0 0-.059.055.8.8 0 0 0 .007.038c.007.034-.01.047-.042.035-.175-.069-.575-.169-.746-.172zm31.147 8.614c.021-.009.046-.019.072-.032.03-.016.045-.005.032.027-.073.215-.125.533-.104.703a.05.05 0 0 0 .07.039.27.27 0 0 0 .034-.017c.029-.017.05-.005.046.03-.017.186.002.592.049.754.011.033.054.058.086.049.166-.043.528-.234.685-.343.026-.021.047-.011.049.024l.002.037a.05.05 0 0 0 .07.041c.157-.07.409-.274.559-.447.021-.026.039-.021.041.014.002.031.006.057.008.078.006.033.033.047.061.026.219-.166.407-.539.489-.704.017-.03.033-.027.046.004.008.029.02.056.034.08.019.029.052.027.067-.002.24-.411.009-.947-.202-1.609-.013-.033-.043-.042-.068-.021l-.636.688c-.027.021-.047.011-.041-.022l.248-.885c.004-.035-.021-.057-.055-.048-.67.161-1.244.229-1.478.638-.019.029-.002.06.033.06a.342.342 0 0 0 .088-.011c.033-.007.045.008.024.037-.102.152-.33.503-.362.774-.004.035.023.051.053.038zM39.477 12.268c.045-.693.143-1.269-.19-1.611-.024-.025-.058-.019-.067.014a.353.353 0 0 0-.016.086c-.003.034-.021.041-.042.014-.119-.14-.394-.458-.646-.568-.031-.014-.057.006-.053.04.003.021.006.046.012.078.006.034-.009.043-.037.023-.187-.133-.48-.271-.65-.302a.05.05 0 0 0-.059.055c.002.012.004.024.008.038.006.033-.01.047-.043.035-.178-.07-.576-.17-.748-.172-.033-.001-.07.033-.07.067-.007.168.074.567.135.745.012.032-.004.048-.037.04l-.037-.008a.05.05 0 0 0-.06.055c.022.169.147.467.272.657.02.029.008.043-.025.036a1.021 1.021 0 0 0-.078-.015c-.033-.005-.055.017-.043.049.098.255.404.542.541.666.025.023.018.04-.018.041a.36.36 0 0 0-.088.011c-.033.008-.041.041-.018.065.324.342.898.272 1.59.271.033 0 .053-.027.039-.059l-.453-.801c-.014-.032.002-.046.032-.032l.786.517c.031.014.061-.001.063-.035zM37.979 7.29c.047.03.096.011.108-.043l.117-1.478c.013-.054.047-.059.075-.012l.582 1.39c.029.047.082.051.115.007.691-.888 1.344-1.576 1.209-2.331-.011-.054-.061-.076-.104-.041a.744.744 0 0 0-.1.102c-.035.043-.064.037-.069-.018-.032-.294-.11-.963-.351-1.335-.031-.046-.08-.042-.106.007a1.404 1.404 0 0 0-.056.115c-.022.051-.053.05-.07-.002-.128-.344-.398-.792-.598-.983a.08.08 0 0 0-.129.022.258.258 0 0 0-.025.056c-.021.051-.057.055-.088.009-.174-.25-.618-.737-.846-.892-.043-.031-.123-.018-.155.027-.162.221-.416.827-.496 1.119-.016.053-.049.061-.086.02a.602.602 0 0 0-.043-.044.08.08 0 0 0-.129.021c-.123.247-.228.757-.232 1.124 0 .055-.027.065-.064.025a1.038 1.038 0 0 0-.092-.089c-.041-.038-.09-.026-.103.027-.101.43.051 1.086.12 1.374.013.054-.014.069-.061.04a.607.607 0 0 0-.128-.063c-.053-.019-.093.018-.084.072.131.745.965 1.164 1.889 1.774zm-3.329.346a.447.447 0 0 0 .01-.087c0-.034-.029-.049-.061-.033-.412.23-.481.798-.646 1.459-.009.033.015.057.048.052l.896-.245c.035-.004.045.014.022.041l-.696.63c-.021.026-.013.057.021.067.67.209 1.214.439 1.629.201.031-.017.033-.05.003-.067a.398.398 0 0 0-.081-.036c-.033-.011-.035-.028-.004-.043.166-.081.544-.268.712-.484.021-.027.007-.055-.026-.06a.973.973 0 0 0-.08-.008c-.035-.002-.039-.019-.014-.041.176-.146.383-.396.453-.552.014-.031-.006-.065-.041-.069a.46.46 0 0 0-.038-.002c-.034-.001-.044-.02-.024-.048.111-.153.305-.511.348-.675.009-.033-.016-.076-.048-.085-.165-.046-.576-.064-.767-.048-.033.003-.045-.015-.029-.045a.38.38 0 0 0 .018-.034c.016-.031-.005-.066-.04-.07-.172-.019-.493.03-.711.105-.032.011-.044-.002-.028-.033.017-.028.024-.051.035-.071.012-.032-.005-.058-.039-.053-.272.033-.629.259-.783.36-.031.019-.046.007-.039-.026zm1.689 6.172l-.038-.003c-.035-.001-.045-.02-.023-.048.109-.153.304-.512.347-.675.011-.033-.017-.076-.049-.085-.164-.046-.575-.064-.765-.048-.035.003-.047-.015-.029-.045l.017-.034a.048.048 0 0 0-.038-.069c-.173-.02-.494.03-.712.104-.032.011-.045-.002-.028-.032a.477.477 0 0 0 .033-.072c.014-.032-.004-.057-.037-.053-.275.033-.631.259-.785.36-.028.019-.043.007-.035-.026a.447.447 0 0 0 .01-.087c0-.034-.029-.049-.061-.032-.412.23-.482.798-.646 1.459-.01.033.014.057.048.053l.896-.245c.035-.004.045.014.022.041l-.698.629c-.021.027-.012.058.021.067.67.21 1.213.439 1.63.202.031-.018.033-.05.003-.068a.424.424 0 0 0-.081-.036c-.032-.011-.034-.029-.004-.044.165-.081.543-.267.711-.484.021-.027.007-.055-.026-.059-.021-.003-.047-.006-.08-.008s-.039-.019-.014-.041c.174-.147.381-.397.451-.552.016-.031-.006-.065-.04-.069zm-3.612-9.421l-.037-.008a.05.05 0 0 0-.059.055c.021.169.146.467.271.657.02.029.01.043-.024.036a1.135 1.135 0 0 0-.079-.015c-.033-.005-.055.017-.043.049.1.255.405.542.541.666.025.023.018.04-.016.041a.418.418 0 0 0-.09.011c-.033.008-.041.041-.019.065.325.341.899.272 1.591.271.033 0 .053-.027.039-.059l-.453-.8c-.014-.032.002-.046.032-.032l.786.517c.031.014.061-.001.063-.036.045-.693.143-1.269-.19-1.611-.022-.025-.058-.019-.067.014a.354.354 0 0 0-.017.086c-.003.034-.021.041-.042.015-.119-.141-.393-.458-.646-.568-.031-.014-.055.006-.051.04a.86.86 0 0 0 .012.079c.006.034-.01.043-.037.023-.187-.134-.482-.273-.652-.304a.05.05 0 0 0-.058.056c0 .012.002.024.006.038.007.033-.01.047-.043.035-.176-.07-.574-.17-.745-.172-.034-.001-.071.033-.071.067-.006.168.074.567.135.745.011.032-.004.048-.037.039zm5.951 12.58c.422-.229.504-.807.67-1.482.008-.033-.015-.057-.049-.052l-.906.263c-.033.005-.043-.013-.021-.04l.676-.63c.021-.027.012-.058-.021-.068-.656-.204-1.186-.439-1.598-.209-.029.017-.033.05-.003.068a.489.489 0 0 0 .08.037c.033.011.035.029.005.044-.169.079-.548.262-.718.477-.021.027-.009.055.024.06l.08.009c.033.003.039.019.014.041-.178.145-.387.393-.458.547-.017.031.005.065.039.069.012.001.024.003.038.003.035.002.043.021.023.049-.111.152-.309.508-.354.671-.01.033.014.076.047.085.164.048.576.07.766.056.033-.003.045.015.029.045a.161.161 0 0 0-.018.034c-.016.031.004.065.039.07.17.021.494-.024.711-.097.033-.011.045.002.029.033-.017.028-.025.051-.035.071-.015.031.004.057.037.053.274-.03.633-.253.789-.352.028-.019.043-.007.034.026a.518.518 0 0 0-.011.087c.002.033.032.048.062.032zm-13.04 2.123c-.016.028-.026.051-.035.071-.014.031.003.057.037.053.275-.03.633-.253.788-.352.028-.019.044-.007.036.026a.372.372 0 0 0-.012.087c0 .034.029.049.061.033.421-.229.503-.807.668-1.481.008-.034-.014-.057-.048-.052l-.905.263c-.034.004-.045-.014-.023-.04l.676-.631c.021-.027.012-.058-.021-.068-.656-.204-1.186-.439-1.598-.208-.03.017-.033.05-.004.067a.463.463 0 0 0 .081.037c.032.011.035.029.004.044-.167.079-.547.262-.718.477-.021.027-.008.055.027.06l.078.009c.035.002.041.02.014.041-.177.145-.386.393-.459.547-.014.031.006.065.041.07l.038.003c.034.001.044.021.023.048-.112.152-.309.509-.354.671-.01.033.015.076.048.085.164.048.574.07.764.056.035-.002.047.015.029.045l-.018.034a.05.05 0 0 0 .039.07c.172.021.496-.025.713-.098.034-.01.045.004.03.033zm3.81-11.476l-.037-.008c-.035-.006-.064.021-.059.055.021.169.146.467.271.657.02.029.009.043-.024.035-.031-.007-.057-.011-.078-.015-.034-.005-.056.018-.044.049.099.255.406.542.541.666.025.023.019.04-.016.042a.368.368 0 0 0-.089.011c-.033.008-.041.041-.017.065.324.341.899.272 1.588.271.035 0 .053-.026.041-.059l-.455-.801c-.013-.032.003-.046.034-.032l.785.517c.031.015.06-.001.062-.035.046-.693.143-1.27-.191-1.612-.023-.025-.057-.019-.066.014a.354.354 0 0 0-.017.086c-.003.034-.021.041-.042.015-.119-.141-.393-.458-.646-.568-.031-.014-.055.006-.051.04a.858.858 0 0 0 .011.079c.007.034-.009.043-.037.023-.187-.134-.48-.272-.65-.303a.049.049 0 0 0-.058.056l.006.037c.007.034-.01.047-.042.035-.177-.069-.575-.168-.746-.171-.034 0-.071.033-.071.067-.006.168.074.567.135.745.011.032-.005.048-.038.039zm-.844 16.678c.023-.024.018-.056-.015-.069l-.894-.249c-.033-.014-.031-.034.001-.046l.925-.183c.033-.012.041-.043.019-.068-.464-.522-.808-.996-1.289-1.006-.034-.001-.054.026-.037.057a.43.43 0 0 0 .051.072c.022.025.015.043-.02.039-.185-.016-.605-.049-.863.05-.032.013-.034.043-.008.064.017.015.037.029.063.048.028.02.025.037-.01.042-.227.036-.534.144-.676.241a.049.049 0 0 0-.002.08l.031.021c.029.02.027.04-.005.054-.175.074-.527.282-.649.399-.025.023-.027.073-.004.099.117.123.459.349.63.433.03.015.032.036.002.053l-.032.021c-.029.02-.03.059-.002.079.137.104.438.228.662.274.034.008.037.025.008.043a1.611 1.611 0 0 0-.066.043c-.027.021-.026.052.006.065.252.112.674.1.859.093.034-.001.041.016.018.041a.489.489 0 0 0-.055.069c-.018.029 0 .058.034.058.475.015.832-.434 1.318-.917zm-5.041-10.247c-.033.008-.041.041-.017.065.324.341.899.273 1.589.271.034 0 .053-.027.04-.059l-.455-.801c-.013-.032.003-.046.034-.032l.785.517c.031.015.06-.001.063-.035.045-.693.142-1.269-.191-1.611-.024-.025-.057-.019-.067.014a.408.408 0 0 0-.016.086c-.003.034-.021.04-.042.014-.119-.14-.393-.458-.646-.568-.031-.014-.055.006-.051.04a.8.8 0 0 0 .011.078c.007.034-.009.043-.037.023-.186-.133-.48-.272-.65-.303a.05.05 0 0 0-.059.055.8.8 0 0 0 .007.038c.006.033-.01.047-.042.035-.177-.069-.575-.168-.747-.171-.033 0-.07.033-.07.067-.007.168.074.567.135.745.011.033-.004.048-.037.04a.287.287 0 0 0-.038-.008.05.05 0 0 0-.059.055c.022.169.147.467.272.657.02.029.009.043-.024.035a1.034 1.034 0 0 0-.079-.015c-.033-.005-.055.018-.043.049.099.255.405.542.541.666.025.023.018.041-.017.041a.444.444 0 0 0-.09.012zm5.885-1.789l-.037-.008c-.035-.006-.064.021-.059.055.021.169.146.467.271.657.02.029.01.043-.024.035-.031-.007-.057-.011-.078-.015-.034-.005-.056.017-.043.049.098.255.405.542.54.666.025.023.019.041-.016.042a.368.368 0 0 0-.089.011c-.033.008-.04.041-.017.065.324.341.899.272 1.588.271.035 0 .053-.026.041-.059l-.455-.801c-.013-.033.003-.047.034-.032l.785.517c.031.015.06-.001.062-.035.046-.693.143-1.269-.191-1.612-.023-.024-.057-.019-.066.014a.41.41 0 0 0-.017.086c-.003.034-.021.041-.042.015-.119-.141-.393-.458-.646-.568-.031-.014-.055.006-.051.04a.843.843 0 0 0 .011.078c.007.034-.009.043-.036.023-.187-.133-.481-.271-.651-.302a.049.049 0 0 0-.058.055l.006.038c.007.033-.01.047-.042.035-.177-.069-.575-.169-.746-.171-.034 0-.071.033-.071.067-.006.169.074.567.135.745.011.033-.005.048-.038.039zm-2.434-.028c.046.031.095.011.108-.043l.081-1.023c.099.004.2.006.309.005l.386.92c.029.047.08.051.115.007.691-.889 1.343-1.577 1.208-2.333-.01-.054-.06-.076-.103-.041a.644.644 0 0 0-.1.102c-.035.043-.064.037-.07-.018-.031-.294-.109-.963-.35-1.335-.03-.046-.08-.042-.106.008a1.404 1.404 0 0 0-.056.115c-.022.051-.051.05-.07-.002-.129-.344-.397-.792-.598-.983a.08.08 0 0 0-.129.022.411.411 0 0 0-.025.056c-.021.051-.057.055-.088.009-.174-.25-.618-.737-.846-.892-.045-.031-.125-.018-.156.027-.162.221-.416.827-.496 1.12-.014.051-.049.059-.086.017l-.043-.044a.08.08 0 0 0-.129.021c-.123.247-.226.757-.232 1.123 0 .056-.027.066-.065.025a1.432 1.432 0 0 0-.091-.089c-.041-.038-.09-.027-.104.027-.1.43.051 1.086.121 1.374.013.056-.013.071-.061.042a.681.681 0 0 0-.127-.063c-.053-.019-.093.018-.084.072.127.745.962 1.164 1.887 1.774zM40 46v-5h-4v-1h-1v1H6v-1H5v1H1v5h4v1H1v5h4v1H1v3h2v7h1v-7h1v6h1v-6h29v6h1v-6h1v7h1v-7h2v-3h-4v-1h4v-5h-4v-1h4zM2 42h37v3H2v-3zm37 13H2v-1h37v1zM6 53v-1h29v1H6zm33-2H2v-3h37v3zm-4-4H6v-1h29v1z"/></svg>